<?xml version="1.0" encoding="UTF-8" standalone="no"?>
<!-- Created with Inkscape (http://www.inkscape.org/) -->

<svg
   xmlns:dc="http://purl.org/dc/elements/1.1/"
   xmlns:cc="http://creativecommons.org/ns#"
   xmlns:rdf="http://www.w3.org/1999/02/22-rdf-syntax-ns#"
   xmlns:svg="http://www.w3.org/2000/svg"
   xmlns="http://www.w3.org/2000/svg"
   xmlns:sodipodi="http://sodipodi.sourceforge.net/DTD/sodipodi-0.dtd"
   xmlns:inkscape="http://www.inkscape.org/namespaces/inkscape"
   width="743.92578"
   height="112.83116"
   id="svg2"
   version="1.1"
   inkscape:version="0.48.4 r9939"
   sodipodi:docname="casac_solenoid.svg">
  <defs
     id="defs4">
    <marker
       inkscape:stockid="Arrow1Lend"
       orient="auto"
       refY="0"
       refX="0"
       id="Arrow1Lend"
       style="overflow:visible">
      <path
         id="path3991"
         d="M 0,0 5,-5 -12.5,0 5,5 0,0 z"
         style="fill-rule:evenodd;stroke:#000000;stroke-width:1pt"
         transform="matrix(-0.8,0,0,-0.8,-10,0)"
         inkscape:connector-curvature="0" />
    </marker>
    <marker
       inkscape:stockid="Arrow1Lstart"
       orient="auto"
       refY="0"
       refX="0"
       id="Arrow1Lstart"
       style="overflow:visible">
      <path
         id="path3988"
         d="M 0,0 5,-5 -12.5,0 5,5 0,0 z"
         style="fill-rule:evenodd;stroke:#000000;stroke-width:1pt"
         transform="matrix(0.8,0,0,0.8,10,0)"
         inkscape:connector-curvature="0" />
    </marker>
  </defs>
  <sodipodi:namedview
     id="base"
     pagecolor="#ffffff"
     bordercolor="#666666"
     borderopacity="1.0"
     inkscape:pageopacity="0.0"
     inkscape:pageshadow="2"
     inkscape:zoom="1.4"
     inkscape:cx="386.67839"
     inkscape:cy="48.707207"
     inkscape:document-units="px"
     inkscape:current-layer="layer1"
     showgrid="true"
     fit-margin-top="0"
     fit-margin-left="0"
     fit-margin-right="0"
     fit-margin-bottom="0"
     inkscape:snap-global="true"
     inkscape:window-width="1664"
     inkscape:window-height="951"
     inkscape:window-x="1920"
     inkscape:window-y="222"
     inkscape:window-maximized="0">
    <inkscape:grid
       type="xygrid"
       id="grid3073"
       empspacing="5"
       visible="true"
       enabled="true"
       snapvisiblegridlinesonly="true"
       originx="-48.603523px"
       originy="-168.08442px" />
  </sodipodi:namedview>
  <metadata
     id="metadata7">
    <rdf:RDF>
      <cc:Work
         rdf:about="">
        <dc:format>image/svg+xml</dc:format>
        <dc:type
           rdf:resource="http://purl.org/dc/dcmitype/StillImage" />
        <dc:title></dc:title>
      </cc:Work>
    </rdf:RDF>
  </metadata>
  <g
     inkscape:label="Layer 1"
     inkscape:groupmode="layer"
     id="layer1"
     style="display:inline"
     transform="translate(-95.784836,-118.88526)">
    <path
       style="fill:none;stroke:#000000;stroke-width:2.17515898;stroke-linecap:butt;stroke-linejoin:miter;stroke-miterlimit:4;stroke-opacity:1;stroke-dasharray:none"
       d="m 150,78 c 560,0 560,0 560,0"
       id="path3075"
       inkscape:connector-curvature="0"
       transform="translate(47.181313,51.800842)" />
    <path
       style="fill:none;stroke:#000000;stroke-width:2.17515898;stroke-linecap:butt;stroke-linejoin:miter;stroke-miterlimit:4;stroke-opacity:1;stroke-dasharray:none"
       d="m 150,168 560,0 0,0"
       id="path3077"
       inkscape:connector-curvature="0"
       transform="translate(47.181313,51.800842)" />
    <path
       style="fill:none;stroke:#000000;stroke-width:1.53846002;stroke-linecap:butt;stroke-linejoin:miter;stroke-miterlimit:4;stroke-opacity:1;stroke-dasharray:none"
       d="m 747.32767,129.6811 c -1.20161,-6.66584 -2.83661,-9.5564 -4.98926,-10.02661 -2.39507,0.19004 -4.25247,2.69544 -4.98926,10.02661 l -9.97853,90.23949 c -0.83959,4.5834 -1.3972,9.59181 -4.98926,10.02661 -3.3901,-0.81808 -4.1399,-5.49509 -4.98926,-10.02661"
       id="path3085"
       inkscape:connector-curvature="0"
       sodipodi:nodetypes="cccccc" />
    <path
       style="fill:none;stroke:#000000;stroke-width:1.53846002;stroke-linecap:butt;stroke-linejoin:miter;stroke-miterlimit:4;stroke-opacity:1;stroke-dasharray:none;display:inline"
       d="m 712.32767,129.6811 c -1.20161,-6.66584 -2.83661,-9.5564 -4.98926,-10.02661 -2.39507,0.19004 -4.25247,2.69544 -4.98926,10.02661 l -9.97853,90.23948 c -0.83959,4.5834 -1.3972,9.59181 -4.98926,10.02661 -3.3901,-0.81808 -4.1399,-5.49509 -4.98926,-10.02661"
       id="path3085-3"
       inkscape:connector-curvature="0"
       sodipodi:nodetypes="cccccc" />
    <path
       style="fill:none;stroke:#000000;stroke-width:1.53846002;stroke-linecap:butt;stroke-linejoin:miter;stroke-miterlimit:4;stroke-opacity:1;stroke-dasharray:none;display:inline"
       d="m 676.32767,129.6811 c -1.20161,-6.66584 -2.83661,-9.5564 -4.98926,-10.02661 -2.39507,0.19004 -4.25247,2.69544 -4.98926,10.02661 l -9.97853,90.23948 c -0.83959,4.5834 -1.3972,9.59181 -4.98926,10.02661 -3.3901,-0.81808 -4.1399,-5.49509 -4.98926,-10.02661"
       id="path3085-6"
       inkscape:connector-curvature="0"
       sodipodi:nodetypes="cccccc" />
    <path
       style="fill:none;stroke:#000000;stroke-width:1.53846002;stroke-linecap:butt;stroke-linejoin:miter;stroke-miterlimit:4;stroke-opacity:1;stroke-dasharray:none;display:inline"
       d="m 641.32767,129.6811 c -1.20161,-6.66584 -2.83661,-9.5564 -4.98926,-10.02661 -2.39507,0.19004 -4.25247,2.69544 -4.98926,10.02661 l -9.97853,90.23947 c -0.83959,4.5834 -1.3972,9.59181 -4.98926,10.02661 -3.3901,-0.81808 -4.1399,-5.49509 -4.98926,-10.02661"
       id="path3085-3-7"
       inkscape:connector-curvature="0"
       sodipodi:nodetypes="cccccc" />
    <path
       style="fill:none;stroke:#000000;stroke-width:1.53846002;stroke-linecap:butt;stroke-linejoin:miter;stroke-miterlimit:4;stroke-opacity:1;stroke-dasharray:none;display:inline"
       d="m 601.32767,129.6811 c -1.20161,-6.66584 -2.83661,-9.5564 -4.98926,-10.02661 -2.39507,0.19004 -4.25247,2.69544 -4.98926,10.02661 l -9.97853,90.23948 c -0.83959,4.5834 -1.3972,9.59181 -4.98926,10.02661 -3.3901,-0.81808 -4.1399,-5.49509 -4.98926,-10.02661"
       id="path3085-5"
       inkscape:connector-curvature="0"
       sodipodi:nodetypes="cccccc" />
    <path
       style="fill:none;stroke:#000000;stroke-width:1.53846002;stroke-linecap:butt;stroke-linejoin:miter;stroke-miterlimit:4;stroke-opacity:1;stroke-dasharray:none;display:inline"
       d="m 566.32767,129.6811 c -1.20161,-6.66584 -2.83661,-9.5564 -4.98926,-10.02661 -2.39507,0.19004 -4.25247,2.69544 -4.98926,10.02661 l -9.97853,90.23947 c -0.83959,4.5834 -1.3972,9.59181 -4.98926,10.02661 -3.3901,-0.81808 -4.1399,-5.49509 -4.98926,-10.02661"
       id="path3085-3-3"
       inkscape:connector-curvature="0"
       sodipodi:nodetypes="cccccc" />
    <path
       style="fill:none;stroke:#000000;stroke-width:1.53846002;stroke-linecap:butt;stroke-linejoin:miter;stroke-miterlimit:4;stroke-opacity:1;stroke-dasharray:none;display:inline"
       d="m 531.32766,130.6811 c -1.20161,-6.66584 -2.83661,-9.5564 -4.98926,-10.02661 -2.39507,0.19004 -4.25247,2.69544 -4.98926,10.02661 l -9.97853,90.23948 c -0.83959,4.5834 -1.3972,9.59181 -4.98926,10.02661 -3.3901,-0.81808 -4.1399,-5.49509 -4.98926,-10.02661"
       id="path3085-9"
       inkscape:connector-curvature="0"
       sodipodi:nodetypes="cccccc" />
    <path
       style="fill:none;stroke:#000000;stroke-width:1.53846002;stroke-linecap:butt;stroke-linejoin:miter;stroke-miterlimit:4;stroke-opacity:1;stroke-dasharray:none;display:inline"
       d="m 496.32766,130.6811 c -1.20161,-6.66584 -2.83661,-9.5564 -4.98926,-10.02661 -2.39507,0.19004 -4.25247,2.69544 -4.98926,10.02661 l -9.97853,90.23947 c -0.83959,4.5834 -1.3972,9.59181 -4.98926,10.02661 -3.3901,-0.81808 -4.1399,-5.49509 -4.98926,-10.02661"
       id="path3085-3-1"
       inkscape:connector-curvature="0"
       sodipodi:nodetypes="cccccc" />
    <path
       style="fill:none;stroke:#000000;stroke-width:1.53846002;stroke-linecap:butt;stroke-linejoin:miter;stroke-miterlimit:4;stroke-opacity:1;stroke-dasharray:none;display:inline"
       d="m 460.32766,130.6811 c -1.20161,-6.66584 -2.83661,-9.5564 -4.98926,-10.02661 -2.39507,0.19004 -4.25247,2.69544 -4.98926,10.02661 l -9.97853,90.23947 c -0.83959,4.5834 -1.3972,9.59181 -4.98926,10.02661 -3.3901,-0.81808 -4.1399,-5.49509 -4.98926,-10.02661"
       id="path3085-6-2"
       inkscape:connector-curvature="0"
       sodipodi:nodetypes="cccccc" />
    <path
       style="fill:none;stroke:#000000;stroke-width:1.53846002;stroke-linecap:butt;stroke-linejoin:miter;stroke-miterlimit:4;stroke-opacity:1;stroke-dasharray:none;display:inline"
       d="m 425.32766,130.6811 c -1.20161,-6.66584 -2.83661,-9.5564 -4.98926,-10.02661 -2.39506,0.19004 -4.25246,2.69544 -4.98925,10.02661 l -9.97853,90.23946 c -0.83959,4.5834 -1.3972,9.59181 -4.98926,10.02661 -3.3901,-0.81808 -4.1399,-5.49509 -4.98926,-10.02661"
       id="path3085-3-7-7"
       inkscape:connector-curvature="0"
       sodipodi:nodetypes="cccccc" />
    <path
       style="fill:none;stroke:#000000;stroke-width:1.53846002;stroke-linecap:butt;stroke-linejoin:miter;stroke-miterlimit:4;stroke-opacity:1;stroke-dasharray:none;display:inline"
       d="m 385.32767,130.6811 c -1.20161,-6.66584 -2.83661,-9.5564 -4.98926,-10.02661 -2.39507,0.19004 -4.25247,2.69544 -4.98926,10.02661 l -9.97853,90.23947 c -0.83959,4.5834 -1.3972,9.59181 -4.98926,10.02661 -3.3901,-0.81808 -4.1399,-5.49509 -4.98926,-10.02661"
       id="path3085-5-0"
       inkscape:connector-curvature="0"
       sodipodi:nodetypes="cccccc" />
    <path
       style="fill:none;stroke:#000000;stroke-width:1.53846002;stroke-linecap:butt;stroke-linejoin:miter;stroke-miterlimit:4;stroke-opacity:1;stroke-dasharray:none;display:inline"
       d="m 350.32767,130.6811 c -1.20161,-6.66584 -2.83661,-9.5564 -4.98926,-10.02661 -2.39507,0.19004 -4.25247,2.69544 -4.98926,10.02661 l -9.97853,90.23946 c -0.83959,4.5834 -1.3972,9.59181 -4.98926,10.02661 -3.3901,-0.81808 -4.1399,-5.49509 -4.98926,-10.02661"
       id="path3085-3-3-9"
       inkscape:connector-curvature="0"
       sodipodi:nodetypes="cccccc" />
    <path
       style="fill:none;stroke:#000000;stroke-width:1.53846002;stroke-linecap:butt;stroke-linejoin:miter;stroke-miterlimit:4;stroke-opacity:1;stroke-dasharray:none;display:inline"
       d="m 317.32765,129.6811 c -1.20161,-6.66584 -2.83661,-9.5564 -4.98926,-10.02661 -2.39505,0.19004 -4.25245,2.69544 -4.98924,10.02661 l -9.97853,90.23945 c -0.83959,4.5834 -1.3972,9.59181 -4.98926,10.02661 -3.3901,-0.81808 -4.1399,-5.49509 -4.98926,-10.02661"
       id="path3085-3-7-7-3"
       inkscape:connector-curvature="0"
       sodipodi:nodetypes="cccccc" />
    <path
       style="fill:none;stroke:#000000;stroke-width:1.53846002;stroke-linecap:butt;stroke-linejoin:miter;stroke-miterlimit:4;stroke-opacity:1;stroke-dasharray:none;display:inline"
       d="m 277.32767,129.6811 c -1.20161,-6.66584 -2.83661,-9.5564 -4.98926,-10.02661 -2.39507,0.19004 -4.25247,2.69544 -4.98926,10.02661 l -9.97853,90.23946 c -0.83959,4.5834 -1.3972,9.59181 -4.98926,10.02661 -3.3901,-0.81808 -4.1399,-5.49509 -4.98926,-10.02661"
       id="path3085-5-0-6"
       inkscape:connector-curvature="0"
       sodipodi:nodetypes="cccccc" />
    <path
       style="fill:none;stroke:#000000;stroke-width:1.53846002;stroke-linecap:butt;stroke-linejoin:miter;stroke-miterlimit:4;stroke-opacity:1;stroke-dasharray:none;display:inline"
       d="m 242.32767,129.6811 c -1.20161,-6.66584 -2.83661,-9.5564 -4.98926,-10.02661 -2.39507,0.19004 -4.25247,2.69544 -4.98926,10.02661 l -9.97853,90.23945 c -0.83959,4.5834 -1.3972,9.59181 -4.98926,10.02661 -3.3901,-0.81808 -4.1399,-5.49509 -4.98926,-10.02661"
       id="path3085-3-3-9-0"
       inkscape:connector-curvature="0"
       sodipodi:nodetypes="cccccc" />
    <path
       style="fill:none;stroke:#000000;stroke-width:1.20480347000000010;stroke-linecap:butt;stroke-linejoin:miter;stroke-miterlimit:4;stroke-opacity:1;stroke-dasharray:none;marker-start:none"
       d="m 140,118 -60,0 0,0"
       id="path3212"
       inkscape:connector-curvature="0"
       transform="translate(47.181313,51.800842)" />
    <path
       style="fill:none;stroke:#000000;stroke-width:1.20500004000000005;stroke-linecap:butt;stroke-linejoin:miter;stroke-miterlimit:4;stroke-opacity:1;stroke-dasharray:none;marker-end:none"
       d="m 720,118 60,0 0,0"
       id="path3214"
       inkscape:connector-curvature="0"
       transform="translate(47.181313,51.800842)" />
    <g
       style="font-size:40px;font-style:normal;font-weight:normal;line-height:125%;letter-spacing:0px;word-spacing:0px;fill:#000000;fill-opacity:1;stroke:none;font-family:Sans"
       id="text4614">
      <path
         d="m 105.1696,135.69928 0,1.92383 c -0.74871,-0.35806 -1.45509,-0.62499 -2.11914,-0.80078 -0.66407,-0.17577 -1.30535,-0.26366 -1.92383,-0.26368 -1.07422,2e-5 -1.904299,0.20835 -2.490232,0.625 -0.57943,0.41668 -0.869144,1.00913 -0.86914,1.77735 -4e-6,0.64454 0.192053,1.13282 0.576172,1.46484 0.39062,0.32553 1.126297,0.5892 2.20703,0.79102 l 1.19141,0.24414 c 1.47134,0.27995 2.55533,0.77475 3.25195,1.48437 0.70311,0.70313 1.05468,1.64714 1.05469,2.83203 -10e-6,1.41277 -0.47527,2.48373 -1.42578,3.2129 -0.94402,0.72916 -2.33074,1.09375 -4.16016,1.09375 -0.690109,0 -1.425786,-0.0781 -2.207031,-0.23438 -0.774743,-0.15625 -1.578778,-0.38737 -2.412109,-0.69336 l 0,-2.03125 c 0.800779,0.44922 1.585283,0.78776 2.353515,1.01563 0.768225,0.22786 1.523432,0.34179 2.265625,0.34179 1.1263,0 1.99543,-0.22135 2.60742,-0.66406 0.61197,-0.44271 0.91796,-1.07422 0.91797,-1.89453 -1e-5,-0.71614 -0.22136,-1.27604 -0.66406,-1.67969 -0.43621,-0.40364 -1.15561,-0.70637 -2.1582,-0.9082 l -1.201177,-0.23438 c -1.471358,-0.29296 -2.53581,-0.75194 -3.193359,-1.37695 -0.657554,-0.62499 -0.98633,-1.49413 -0.986328,-2.60742 -2e-6,-1.28905 0.452472,-2.30468 1.357422,-3.04688 0.911454,-0.74217 2.164708,-1.11326 3.759762,-1.11328 0.68359,2e-5 1.3802,0.0619 2.08985,0.18555 0.70962,0.12371 1.43553,0.30926 2.17773,0.55664"
         style="font-size:20px;text-align:center;text-anchor:middle"
         id="path4432" />
      <path
         d="m 114.01726,144.3028 c -1.45183,0 -2.45769,0.16602 -3.01758,0.49804 -0.5599,0.33204 -0.83985,0.89844 -0.83984,1.69922 -1e-5,0.63802 0.20833,1.14584 0.625,1.52344 0.42317,0.37109 0.99608,0.55664 1.71875,0.55664 0.99608,0 1.79361,-0.35156 2.39257,-1.05469 0.60546,-0.70963 0.9082,-1.65039 0.90821,-2.82226 l 0,-0.40039 -1.78711,0 m 3.58398,-0.74219 0,6.24023 -1.79687,0 0,-1.66015 c -0.41017,0.66406 -0.92123,1.1556 -1.53321,1.47461 -0.61198,0.3125 -1.36068,0.46875 -2.24609,0.46875 -1.1198,0 -2.01172,-0.3125 -2.67578,-0.9375 -0.65755,-0.63151 -0.98633,-1.47461 -0.98633,-2.5293 0,-1.23047 0.41016,-2.1582 1.23047,-2.7832 0.82682,-0.625 2.05729,-0.9375 3.69141,-0.9375 l 2.51953,0 0,-0.17579 c -1e-5,-0.82681 -0.27345,-1.46483 -0.82032,-1.91406 -0.54037,-0.45572 -1.30209,-0.68358 -2.28515,-0.68359 -0.62501,1e-5 -1.23373,0.0749 -1.82617,0.22461 -0.59245,0.14975 -1.16212,0.37436 -1.70899,0.67383 l 0,-1.66016 c 0.65755,-0.2539 1.29557,-0.4427 1.91406,-0.56641 0.61849,-0.13019 1.2207,-0.1953 1.80665,-0.19531 1.58202,1e-5 2.76366,0.41017 3.54492,1.23047 0.78124,0.82032 1.17186,2.06381 1.17187,3.73047"
         style="font-size:20px;text-align:center;text-anchor:middle"
         id="path4434" />
      <path
         d="m 129.8278,140.96295 c 0.44921,-0.80728 0.98632,-1.40298 1.61133,-1.78711 0.62499,-0.3841 1.36067,-0.57616 2.20703,-0.57617 1.13931,1e-5 2.01822,0.4004 2.63672,1.20117 0.61847,0.79428 0.92772,1.92709 0.92774,3.39844 l 0,6.60156 -1.80664,0 0,-6.54297 c -2e-5,-1.04817 -0.18557,-1.82616 -0.55664,-2.33398 -0.37111,-0.5078 -0.93752,-0.76171 -1.69922,-0.76172 -0.93101,1e-5 -1.66668,0.30925 -2.20703,0.92773 -0.54038,0.6185 -0.81056,1.4616 -0.81055,2.5293 l 0,6.18164 -1.80664,0 0,-6.54297 c -1e-5,-1.05468 -0.18556,-1.83267 -0.55664,-2.33398 -0.3711,-0.5078 -0.94402,-0.76171 -1.71875,-0.76172 -0.91798,1e-5 -1.64714,0.31251 -2.1875,0.9375 -0.54037,0.6185 -0.81055,1.45834 -0.81055,2.51953 l 0,6.18164 -1.80664,0 0,-10.9375 1.80664,0 0,1.69922 c 0.41015,-0.67056 0.90169,-1.16535 1.47461,-1.48437 0.57291,-0.319 1.25325,-0.47851 2.04102,-0.47852 0.79426,1e-5 1.46809,0.20183 2.02148,0.60547 0.55989,0.40366 0.9733,0.98959 1.24023,1.75781"
         style="font-size:20px;text-align:center;text-anchor:middle"
         id="path4436" />
      <path
         d="m 142.54265,148.16022 0,5.80078 -1.80664,0 0,-15.09766 1.80664,0 0,1.66016 c 0.3776,-0.65103 0.85286,-1.1328 1.42578,-1.44531 0.57942,-0.319 1.26952,-0.47851 2.07031,-0.47852 1.32812,1e-5 2.40559,0.52735 3.23242,1.58203 0.83333,1.0547 1.24999,2.44142 1.25,4.16016 -1e-5,1.71875 -0.41667,3.10547 -1.25,4.16015 -0.82683,1.05469 -1.9043,1.58204 -3.23242,1.58204 -0.80079,0 -1.49089,-0.15625 -2.07031,-0.46875 -0.57292,-0.31901 -1.04818,-0.80404 -1.42578,-1.45508 m 6.11328,-3.81836 c -1e-5,-1.32161 -0.27345,-2.35677 -0.82031,-3.10547 -0.54038,-0.7552 -1.28582,-1.1328 -2.23633,-1.13281 -0.95053,1e-5 -1.69922,0.37761 -2.24609,1.13281 -0.54037,0.7487 -0.81056,1.78386 -0.81055,3.10547 -1e-5,1.32162 0.27018,2.36003 0.81055,3.11523 0.54687,0.7487 1.29556,1.12305 2.24609,1.12305 0.95051,0 1.69595,-0.37435 2.23633,-1.12305 0.54686,-0.7552 0.8203,-1.79361 0.82031,-3.11523"
         style="font-size:20px;text-align:center;text-anchor:middle"
         id="path4438" />
      <path
         d="m 153.49968,134.60553 1.79687,0 0,15.19531 -1.79687,0 0,-15.19531"
         style="font-size:20px;text-align:center;text-anchor:middle"
         id="path4440" />
      <path
         d="m 168.40202,143.88287 0,0.87891 -8.26172,0 c 0.0781,1.23698 0.44922,2.18099 1.11329,2.83203 0.67056,0.64453 1.60155,0.9668 2.79296,0.9668 0.6901,0 1.35742,-0.0846 2.00196,-0.25391 0.65103,-0.16927 1.29556,-0.42317 1.93359,-0.76172 l 0,1.69922 c -0.64454,0.27344 -1.30535,0.48177 -1.98242,0.625 -0.67709,0.14323 -1.36394,0.21485 -2.06055,0.21485 -1.74479,0 -3.12826,-0.50782 -4.15039,-1.52344 -1.01562,-1.01562 -1.52344,-2.38932 -1.52344,-4.1211 0,-1.79035 0.48177,-3.20962 1.44532,-4.25781 0.97005,-1.05468 2.27538,-1.58202 3.91601,-1.58203 1.47135,1e-5 2.63346,0.47527 3.48633,1.42578 0.85937,0.94402 1.28905,2.22983 1.28906,3.85742 m -1.79687,-0.52734 c -0.013,-0.98307 -0.28972,-1.76757 -0.83008,-2.35352 -0.53386,-0.58592 -1.2435,-0.87889 -2.12891,-0.8789 -1.00261,1e-5 -1.80664,0.28321 -2.41211,0.84961 -0.59896,0.56641 -0.94401,1.36394 -1.03515,2.39258 l 6.40625,-0.01"
         style="font-size:20px;text-align:center;text-anchor:middle"
         id="path4442" />
      <path
         d="m 178.3239,139.18561 0,1.69922 c -0.50782,-0.26041 -1.03517,-0.45572 -1.58203,-0.58594 -0.54688,-0.1302 -1.11329,-0.1953 -1.69922,-0.19531 -0.89193,1e-5 -1.56251,0.13672 -2.01172,0.41015 -0.44271,0.27345 -0.66407,0.68361 -0.66406,1.23047 -1e-5,0.41668 0.1595,0.74545 0.47851,0.98633 0.31901,0.23438 0.96028,0.45899 1.92383,0.67383 l 0.61524,0.13672 c 1.27603,0.27344 2.18098,0.66081 2.71484,1.16211 0.54035,0.49479 0.81054,1.18815 0.81055,2.08007 -1e-5,1.01563 -0.40366,1.81967 -1.21094,2.41211 -0.80079,0.59245 -1.9043,0.88868 -3.31055,0.88868 -0.58594,0 -1.19792,-0.0586 -1.83594,-0.17579 -0.63151,-0.11067 -1.29883,-0.27994 -2.00195,-0.50781 l 0,-1.85547 c 0.66406,0.34506 1.31836,0.60547 1.96289,0.78125 0.64453,0.16928 1.28255,0.25391 1.91406,0.25391 0.84635,0 1.49739,-0.14323 1.95313,-0.42969 0.45572,-0.29297 0.68359,-0.70312 0.68359,-1.23047 0,-0.48827 -0.16602,-0.86262 -0.49804,-1.12304 -0.32553,-0.26042 -1.04493,-0.51107 -2.15821,-0.75196 l -0.625,-0.14648 c -1.11328,-0.23437 -1.91732,-0.59244 -2.41211,-1.07422 -0.49479,-0.48828 -0.74219,-1.15559 -0.74218,-2.00195 -1e-5,-1.02864 0.36458,-1.82291 1.09375,-2.38282 0.72916,-0.55988 1.76431,-0.83983 3.10546,-0.83984 0.66406,1e-5 1.28906,0.0488 1.875,0.14648 0.58593,0.0977 1.1263,0.24416 1.6211,0.43946"
         style="font-size:20px;text-align:center;text-anchor:middle"
         id="path4444" />
    </g>
    <g
       style="font-size:40px;font-style:normal;font-weight:normal;line-height:125%;letter-spacing:0px;word-spacing:0px;fill:#000000;fill-opacity:1;stroke:none;font-family:Sans"
       id="text4620">
      <path
         d="m 777.60126,136.84186 0,5.47851 2.48047,0 c 0.91796,1e-5 1.62759,-0.23762 2.1289,-0.71289 0.5013,-0.47525 0.75195,-1.15233 0.75196,-2.03125 -10e-6,-0.87238 -0.25066,-1.54621 -0.75196,-2.02148 -0.50131,-0.47525 -1.21094,-0.71288 -2.1289,-0.71289 l -2.48047,0 m -1.97266,-1.6211 4.45313,0 c 1.6341,2e-5 2.86783,0.37111 3.70117,1.11329 0.83983,0.73569 1.25975,1.81641 1.25976,3.24218 -10e-6,1.43881 -0.41993,2.52605 -1.25976,3.26172 -0.83334,0.73568 -2.06707,1.10352 -3.70117,1.10352 l -2.48047,0 0,5.85937 -1.97266,0 0,-14.58008"
         style="font-size:20px;text-align:center;text-anchor:middle"
         id="path4447" />
      <path
         d="m 787.08368,145.48444 0,-6.6211 1.79687,0 0,6.55274 c 0,1.03516 0.20182,1.81315 0.60547,2.33398 0.40364,0.51433 1.00911,0.77149 1.81641,0.77149 0.97004,0 1.73502,-0.30925 2.29492,-0.92774 0.5664,-0.61849 0.8496,-1.46158 0.84961,-2.5293 l 0,-6.20117 1.79688,0 0,10.9375 -1.79688,0 0,-1.67969 c -0.43621,0.66407 -0.94402,1.15886 -1.52344,1.48438 -0.57292,0.31901 -1.24024,0.47852 -2.00195,0.47852 -1.25651,0 -2.21029,-0.39063 -2.86133,-1.17188 -0.65104,-0.78125 -0.97656,-1.92382 -0.97656,-3.42773 m 4.52148,-6.88477 0,0"
         style="font-size:20px;text-align:center;text-anchor:middle"
         id="path4449" />
      <path
         d="m 808.48016,140.96295 c 0.44921,-0.80728 0.98632,-1.40298 1.61133,-1.78711 0.62499,-0.3841 1.36067,-0.57616 2.20703,-0.57617 1.13931,1e-5 2.01822,0.4004 2.63672,1.20117 0.61847,0.79428 0.92772,1.92709 0.92774,3.39844 l 0,6.60156 -1.80664,0 0,-6.54297 c -2e-5,-1.04817 -0.18557,-1.82616 -0.55665,-2.33398 -0.3711,-0.5078 -0.93751,-0.76171 -1.69921,-0.76172 -0.93101,1e-5 -1.66668,0.30925 -2.20704,0.92773 -0.54037,0.6185 -0.81055,1.4616 -0.81054,2.5293 l 0,6.18164 -1.80664,0 0,-6.54297 c -10e-6,-1.05468 -0.18556,-1.83267 -0.55664,-2.33398 -0.37111,-0.5078 -0.94402,-0.76171 -1.71875,-0.76172 -0.91798,1e-5 -1.64714,0.31251 -2.1875,0.9375 -0.54037,0.6185 -0.81055,1.45834 -0.81055,2.51953 l 0,6.18164 -1.80664,0 0,-10.9375 1.80664,0 0,1.69922 c 0.41015,-0.67056 0.90169,-1.16535 1.47461,-1.48437 0.57291,-0.319 1.25325,-0.47851 2.04101,-0.47852 0.79427,1e-5 1.4681,0.20183 2.02149,0.60547 0.55989,0.40366 0.9733,0.98959 1.24023,1.75781"
         style="font-size:20px;text-align:center;text-anchor:middle"
         id="path4451" />
      <path
         d="m 821.19501,148.16022 0,5.80078 -1.80664,0 0,-15.09766 1.80664,0 0,1.66016 c 0.3776,-0.65103 0.85286,-1.1328 1.42578,-1.44531 0.57942,-0.319 1.26952,-0.47851 2.07031,-0.47852 1.32812,1e-5 2.40559,0.52735 3.23242,1.58203 0.83333,1.0547 1.24999,2.44142 1.25,4.16016 -1e-5,1.71875 -0.41667,3.10547 -1.25,4.16015 -0.82683,1.05469 -1.9043,1.58204 -3.23242,1.58204 -0.80079,0 -1.49089,-0.15625 -2.07031,-0.46875 -0.57292,-0.31901 -1.04818,-0.80404 -1.42578,-1.45508 m 6.11328,-3.81836 c -1e-5,-1.32161 -0.27345,-2.35677 -0.82031,-3.10547 -0.54038,-0.7552 -1.28582,-1.1328 -2.23633,-1.13281 -0.95053,1e-5 -1.69923,0.37761 -2.2461,1.13281 -0.54036,0.7487 -0.81055,1.78386 -0.81054,3.10547 -10e-6,1.32162 0.27018,2.36003 0.81054,3.11523 0.54687,0.7487 1.29557,1.12305 2.2461,1.12305 0.95051,0 1.69595,-0.37435 2.23633,-1.12305 0.54686,-0.7552 0.8203,-1.79361 0.82031,-3.11523"
         style="font-size:20px;text-align:center;text-anchor:middle"
         id="path4453" />
      <path
         d="m 839.12469,139.18561 0,1.69922 c -0.50782,-0.26041 -1.03516,-0.45572 -1.58203,-0.58594 -0.54688,-0.1302 -1.11328,-0.1953 -1.69922,-0.19531 -0.89193,1e-5 -1.5625,0.13672 -2.01171,0.41015 -0.44272,0.27345 -0.66407,0.68361 -0.66407,1.23047 0,0.41668 0.15951,0.74545 0.47852,0.98633 0.31901,0.23438 0.96028,0.45899 1.92383,0.67383 l 0.61523,0.13672 c 1.27604,0.27344 2.18098,0.66081 2.71485,1.16211 0.54035,0.49479 0.81053,1.18815 0.81054,2.08007 -1e-5,1.01563 -0.40365,1.81967 -1.21094,2.41211 -0.80078,0.59245 -1.9043,0.88868 -3.31054,0.88868 -0.58594,0 -1.19792,-0.0586 -1.83594,-0.17579 -0.63151,-0.11067 -1.29883,-0.27994 -2.00195,-0.50781 l 0,-1.85547 c 0.66406,0.34506 1.31835,0.60547 1.96289,0.78125 0.64453,0.16928 1.28255,0.25391 1.91406,0.25391 0.84635,0 1.49739,-0.14323 1.95313,-0.42969 0.45572,-0.29297 0.68358,-0.70312 0.68359,-1.23047 -10e-6,-0.48827 -0.16602,-0.86262 -0.49805,-1.12304 -0.32553,-0.26042 -1.04493,-0.51107 -2.1582,-0.75196 l -0.625,-0.14648 c -1.11329,-0.23437 -1.91732,-0.59244 -2.41211,-1.07422 -0.49479,-0.48828 -0.74219,-1.15559 -0.74219,-2.00195 0,-1.02864 0.36458,-1.82291 1.09375,-2.38282 0.72917,-0.55988 1.76432,-0.83983 3.10547,-0.83984 0.66406,1e-5 1.28906,0.0488 1.875,0.14648 0.58593,0.0977 1.12629,0.24416 1.62109,0.43946"
         style="font-size:20px;text-align:center;text-anchor:middle"
         id="path4455" />
    </g>
    <path
       style="fill:none;stroke:#000000;stroke-width:1.5;stroke-linecap:butt;stroke-linejoin:miter;stroke-opacity:1;stroke-miterlimit:4;stroke-dasharray:none"
       d="m 721.39648,45.915581 10,5 0,0 -10,5 0,0"
       id="path4427"
       inkscape:connector-curvature="0"
       transform="translate(95.784836,118.88526)" />
    <path
       style="fill:none;stroke:#000000;stroke-width:1.5;stroke-linecap:butt;stroke-linejoin:miter;stroke-opacity:1;stroke-miterlimit:4;stroke-dasharray:none"
       d="m 81.396477,45.915581 10,5 0,0 -10,5 0,0"
       id="path4429"
       inkscape:connector-curvature="0"
       transform="translate(95.784836,118.88526)" />
  </g>
</svg>
