<?xml version="1.0" encoding="UTF-8" standalone="no"?>
<!-- Created with Inkscape (http://www.inkscape.org/) -->

<svg
   xmlns:dc="http://purl.org/dc/elements/1.1/"
   xmlns:cc="http://creativecommons.org/ns#"
   xmlns:rdf="http://www.w3.org/1999/02/22-rdf-syntax-ns#"
   xmlns:svg="http://www.w3.org/2000/svg"
   xmlns="http://www.w3.org/2000/svg"
   xmlns:sodipodi="http://sodipodi.sourceforge.net/DTD/sodipodi-0.dtd"
   xmlns:inkscape="http://www.inkscape.org/namespaces/inkscape"
   width="1016.9772"
   height="676.00006"
   id="svg2"
   version="1.1"
   inkscape:version="0.48.4 r9939"
   sodipodi:docname="casac_pgauges.svg">
  <defs
     id="defs4">
    <marker
       style="overflow:visible"
       id="Arrow1Lstart"
       refX="0"
       refY="0"
       orient="auto"
       inkscape:stockid="Arrow1Lstart">
      <path
         inkscape:connector-curvature="0"
         transform="matrix(0.8,0,0,0.8,10,0)"
         style="fill-rule:evenodd;stroke:#000000;stroke-width:1pt"
         d="M 0,0 5,-5 -12.5,0 5,5 0,0 z"
         id="path3988" />
    </marker>
    <marker
       style="overflow:visible"
       id="Arrow1Lend"
       refX="0"
       refY="0"
       orient="auto"
       inkscape:stockid="Arrow1Lend">
      <path
         inkscape:connector-curvature="0"
         transform="matrix(-0.8,0,0,-0.8,-10,0)"
         style="fill-rule:evenodd;stroke:#000000;stroke-width:1pt"
         d="M 0,0 5,-5 -12.5,0 5,5 0,0 z"
         id="path3991" />
    </marker>
  </defs>
  <sodipodi:namedview
     id="base"
     pagecolor="#ffffff"
     bordercolor="#666666"
     borderopacity="1.0"
     inkscape:pageopacity="0.0"
     inkscape:pageshadow="2"
     inkscape:zoom="0.7"
     inkscape:cx="595.82737"
     inkscape:cy="315.83038"
     inkscape:document-units="px"
     inkscape:current-layer="layer1-3"
     showgrid="true"
     inkscape:snap-global="true"
     inkscape:snap-bbox="true"
     inkscape:window-width="1668"
     inkscape:window-height="950"
     inkscape:window-x="2006"
     inkscape:window-y="157"
     inkscape:window-maximized="0"
     fit-margin-top="0"
     fit-margin-left="0"
     fit-margin-right="0"
     fit-margin-bottom="0">
    <inkscape:grid
       type="xygrid"
       id="grid3171"
       empspacing="5"
       visible="true"
       enabled="true"
       snapvisiblegridlinesonly="true"
       originx="-4.0000161px"
       originy="-39.999949px" />
  </sodipodi:namedview>
  <metadata
     id="metadata7">
    <rdf:RDF>
      <cc:Work
         rdf:about="">
        <dc:format>image/svg+xml</dc:format>
        <dc:type
           rdf:resource="http://purl.org/dc/dcmitype/StillImage" />
        <dc:title></dc:title>
      </cc:Work>
    </rdf:RDF>
  </metadata>
  <g
     inkscape:label="Layer 1"
     inkscape:groupmode="layer"
     id="layer1"
     transform="translate(-4.0000161,-336.36217)">
    <g
       transform="translate(452.25224,-228.653)"
       style="display:inline"
       id="layer1-3"
       inkscape:label="Layer 1">
      <path
         inkscape:connector-curvature="0"
         id="path3075"
         d="m -231.69379,781.09959 c 560,0 560,0 560,0"
         style="fill:none;stroke:#000000;stroke-width:2.17515898;stroke-linecap:butt;stroke-linejoin:miter;stroke-miterlimit:4;stroke-opacity:1;stroke-dasharray:none" />
      <path
         inkscape:connector-curvature="0"
         id="path3077"
         d="m -231.69379,871.09959 560,0 0,0"
         style="fill:none;stroke:#000000;stroke-width:2.17515898;stroke-linecap:butt;stroke-linejoin:miter;stroke-miterlimit:4;stroke-opacity:1;stroke-dasharray:none" />
      <path
         sodipodi:nodetypes="cccccc"
         inkscape:connector-curvature="0"
         id="path3085"
         d="m 318.45257,780.97985 c -1.20161,-6.66584 -2.83661,-9.5564 -4.98926,-10.02661 -2.39507,0.19004 -4.25247,2.69544 -4.98926,10.02661 l -9.97853,90.23949 c -0.83959,4.5834 -1.3972,9.59181 -4.98926,10.02661 -3.3901,-0.81808 -4.1399,-5.49509 -4.98926,-10.02661"
         style="fill:none;stroke:#000000;stroke-width:1.53846002;stroke-linecap:butt;stroke-linejoin:miter;stroke-miterlimit:4;stroke-opacity:1;stroke-dasharray:none" />
      <path
         sodipodi:nodetypes="cccccc"
         inkscape:connector-curvature="0"
         id="path3085-3"
         d="m 283.45257,780.97985 c -1.20161,-6.66584 -2.83661,-9.5564 -4.98926,-10.02661 -2.39507,0.19004 -4.25247,2.69544 -4.98926,10.02661 l -9.97853,90.23948 c -0.83959,4.5834 -1.3972,9.59181 -4.98926,10.02661 -3.3901,-0.81808 -4.1399,-5.49509 -4.98926,-10.02661"
         style="fill:none;stroke:#000000;stroke-width:1.53846002;stroke-linecap:butt;stroke-linejoin:miter;stroke-miterlimit:4;stroke-opacity:1;stroke-dasharray:none;display:inline" />
      <path
         sodipodi:nodetypes="cccccc"
         inkscape:connector-curvature="0"
         id="path3085-6"
         d="m 247.45257,780.97985 c -1.20161,-6.66584 -2.83661,-9.5564 -4.98926,-10.02661 -2.39507,0.19004 -4.25247,2.69544 -4.98926,10.02661 l -9.97853,90.23948 c -0.83959,4.5834 -1.3972,9.59181 -4.98926,10.02661 -3.3901,-0.81808 -4.1399,-5.49509 -4.98926,-10.02661"
         style="fill:none;stroke:#000000;stroke-width:1.53846002;stroke-linecap:butt;stroke-linejoin:miter;stroke-miterlimit:4;stroke-opacity:1;stroke-dasharray:none;display:inline" />
      <path
         sodipodi:nodetypes="cccccc"
         inkscape:connector-curvature="0"
         id="path3085-3-7"
         d="m 212.45257,780.97985 c -1.20161,-6.66584 -2.83661,-9.5564 -4.98926,-10.02661 -2.39507,0.19004 -4.25247,2.69544 -4.98926,10.02661 l -9.97853,90.23947 c -0.83959,4.5834 -1.3972,9.59181 -4.98926,10.02661 -3.3901,-0.81808 -4.1399,-5.49509 -4.98926,-10.02661"
         style="fill:none;stroke:#000000;stroke-width:1.53846002;stroke-linecap:butt;stroke-linejoin:miter;stroke-miterlimit:4;stroke-opacity:1;stroke-dasharray:none;display:inline" />
      <path
         sodipodi:nodetypes="cccccc"
         inkscape:connector-curvature="0"
         id="path3085-5"
         d="m 172.45257,780.97985 c -1.20161,-6.66584 -2.83661,-9.5564 -4.98926,-10.02661 -2.39507,0.19004 -4.25247,2.69544 -4.98926,10.02661 l -9.97853,90.23948 c -0.83959,4.5834 -1.3972,9.59181 -4.98926,10.02661 -3.3901,-0.81808 -4.1399,-5.49509 -4.98926,-10.02661"
         style="fill:none;stroke:#000000;stroke-width:1.53846002;stroke-linecap:butt;stroke-linejoin:miter;stroke-miterlimit:4;stroke-opacity:1;stroke-dasharray:none;display:inline" />
      <path
         sodipodi:nodetypes="cccccc"
         inkscape:connector-curvature="0"
         id="path3085-3-3"
         d="m 137.45257,780.97985 c -1.20161,-6.66584 -2.83661,-9.5564 -4.98926,-10.02661 -2.39507,0.19004 -4.25247,2.69544 -4.98926,10.02661 l -9.97853,90.23947 c -0.83959,4.5834 -1.3972,9.59181 -4.98926,10.02661 -3.3901,-0.81808 -4.1399,-5.49509 -4.98926,-10.02661"
         style="fill:none;stroke:#000000;stroke-width:1.53846002;stroke-linecap:butt;stroke-linejoin:miter;stroke-miterlimit:4;stroke-opacity:1;stroke-dasharray:none;display:inline" />
      <path
         sodipodi:nodetypes="cccccc"
         inkscape:connector-curvature="0"
         id="path3085-9"
         d="m 102.45256,781.97985 c -1.20161,-6.66584 -2.83661,-9.5564 -4.98926,-10.02661 -2.39507,0.19004 -4.25247,2.69544 -4.98926,10.02661 l -9.97853,90.23948 c -0.83959,4.5834 -1.3972,9.59181 -4.98926,10.02661 -3.3901,-0.81808 -4.1399,-5.49509 -4.98926,-10.02661"
         style="fill:none;stroke:#000000;stroke-width:1.53846002;stroke-linecap:butt;stroke-linejoin:miter;stroke-miterlimit:4;stroke-opacity:1;stroke-dasharray:none;display:inline" />
      <path
         sodipodi:nodetypes="cccccc"
         inkscape:connector-curvature="0"
         id="path3085-3-1"
         d="m 67.45256,781.97985 c -1.20161,-6.66584 -2.83661,-9.5564 -4.98926,-10.02661 -2.39507,0.19004 -4.25247,2.69544 -4.98926,10.02661 l -9.97853,90.23947 c -0.83959,4.5834 -1.3972,9.59181 -4.98926,10.02661 -3.3901,-0.81808 -4.1399,-5.49509 -4.98926,-10.02661"
         style="fill:none;stroke:#000000;stroke-width:1.53846002;stroke-linecap:butt;stroke-linejoin:miter;stroke-miterlimit:4;stroke-opacity:1;stroke-dasharray:none;display:inline" />
      <path
         sodipodi:nodetypes="cccccc"
         inkscape:connector-curvature="0"
         id="path3085-6-2"
         d="m 31.45256,781.97985 c -1.20161,-6.66584 -2.83661,-9.5564 -4.98926,-10.02661 -2.39507,0.19004 -4.25247,2.69544 -4.98926,10.02661 l -9.97853,90.23947 c -0.83959,4.5834 -1.3972,9.59181 -4.98926,10.02661 -3.3901,-0.81808 -4.1399,-5.49509 -4.98926,-10.02661"
         style="fill:none;stroke:#000000;stroke-width:1.53846002;stroke-linecap:butt;stroke-linejoin:miter;stroke-miterlimit:4;stroke-opacity:1;stroke-dasharray:none;display:inline" />
      <path
         sodipodi:nodetypes="cccccc"
         inkscape:connector-curvature="0"
         id="path3085-3-7-7"
         d="m -3.54744,781.97985 c -1.20161,-6.66584 -2.83661,-9.5564 -4.98926,-10.02661 -2.39506,0.19004 -4.25246,2.69544 -4.98925,10.02661 l -9.97853,90.23946 c -0.83959,4.5834 -1.3972,9.59181 -4.98926,10.02661 -3.3901,-0.81808 -4.1399,-5.49509 -4.98926,-10.02661"
         style="fill:none;stroke:#000000;stroke-width:1.53846002;stroke-linecap:butt;stroke-linejoin:miter;stroke-miterlimit:4;stroke-opacity:1;stroke-dasharray:none;display:inline" />
      <path
         sodipodi:nodetypes="cccccc"
         inkscape:connector-curvature="0"
         id="path3085-5-0"
         d="m -43.54743,781.97985 c -1.20161,-6.66584 -2.83661,-9.5564 -4.98926,-10.02661 -2.39507,0.19004 -4.25247,2.69544 -4.98926,10.02661 l -9.97853,90.23947 c -0.83959,4.5834 -1.3972,9.59181 -4.98926,10.02661 -3.3901,-0.81808 -4.1399,-5.49509 -4.98926,-10.02661"
         style="fill:none;stroke:#000000;stroke-width:1.53846002;stroke-linecap:butt;stroke-linejoin:miter;stroke-miterlimit:4;stroke-opacity:1;stroke-dasharray:none;display:inline" />
      <path
         sodipodi:nodetypes="cccccc"
         inkscape:connector-curvature="0"
         id="path3085-3-3-9"
         d="m -78.54743,781.97985 c -1.20161,-6.66584 -2.83661,-9.5564 -4.98926,-10.02661 -2.39507,0.19004 -4.25247,2.69544 -4.98926,10.02661 l -9.97853,90.23946 c -0.83959,4.5834 -1.3972,9.59181 -4.98926,10.02661 -3.3901,-0.81808 -4.1399,-5.49509 -4.98926,-10.02661"
         style="fill:none;stroke:#000000;stroke-width:1.53846002;stroke-linecap:butt;stroke-linejoin:miter;stroke-miterlimit:4;stroke-opacity:1;stroke-dasharray:none;display:inline" />
      <path
         sodipodi:nodetypes="cccccc"
         inkscape:connector-curvature="0"
         id="path3085-3-7-7-3"
         d="m -111.54745,780.97985 c -1.20161,-6.66584 -2.83661,-9.5564 -4.98926,-10.02661 -2.39505,0.19004 -4.25245,2.69544 -4.98924,10.02661 l -9.97853,90.23945 c -0.83959,4.5834 -1.3972,9.59181 -4.98926,10.02661 -3.3901,-0.81808 -4.1399,-5.49509 -4.98926,-10.02661"
         style="fill:none;stroke:#000000;stroke-width:1.53846002;stroke-linecap:butt;stroke-linejoin:miter;stroke-miterlimit:4;stroke-opacity:1;stroke-dasharray:none;display:inline" />
      <path
         sodipodi:nodetypes="cccccc"
         inkscape:connector-curvature="0"
         id="path3085-5-0-6"
         d="m -151.54743,780.97985 c -1.20161,-6.66584 -2.83661,-9.5564 -4.98926,-10.02661 -2.39507,0.19004 -4.25247,2.69544 -4.98926,10.02661 l -9.97853,90.23946 c -0.83959,4.5834 -1.3972,9.59181 -4.98926,10.02661 -3.3901,-0.81808 -4.1399,-5.49509 -4.98926,-10.02661"
         style="fill:none;stroke:#000000;stroke-width:1.53846002;stroke-linecap:butt;stroke-linejoin:miter;stroke-miterlimit:4;stroke-opacity:1;stroke-dasharray:none;display:inline" />
      <path
         sodipodi:nodetypes="cccccc"
         inkscape:connector-curvature="0"
         id="path3085-3-3-9-0"
         d="m -186.54743,780.97985 c -1.20161,-6.66584 -2.83661,-9.5564 -4.98926,-10.02661 -2.39507,0.19004 -4.25247,2.69544 -4.98926,10.02661 l -9.97853,90.23945 c -0.83959,4.5834 -1.3972,9.59181 -4.98926,10.02661 -3.3901,-0.81808 -4.1399,-5.49509 -4.98926,-10.02661"
         style="fill:none;stroke:#000000;stroke-width:1.53846002;stroke-linecap:butt;stroke-linejoin:miter;stroke-miterlimit:4;stroke-opacity:1;stroke-dasharray:none;display:inline" />
      <path
         inkscape:connector-curvature="0"
         id="path3212"
         d="m -361.69379,821.09959 -60,0 0,0"
         style="fill:none;stroke:#000000;stroke-width:1.20480347;stroke-linecap:butt;stroke-linejoin:miter;stroke-miterlimit:4;stroke-opacity:1;stroke-dasharray:none;marker-start:none" />
      <g
         id="text4614"
         style="font-size:40px;font-style:normal;font-weight:normal;line-height:125%;letter-spacing:0px;word-spacing:0px;fill:#000000;fill-opacity:1;stroke:none;font-family:Sans"
         transform="translate(-542.8751,651.29875)">
        <path
           id="path4432"
           style="font-size:20px;text-align:center;text-anchor:middle"
           d="m 105.1696,135.69928 0,1.92383 c -0.74871,-0.35806 -1.45509,-0.62499 -2.11914,-0.80078 -0.66407,-0.17577 -1.30535,-0.26366 -1.92383,-0.26368 -1.07422,2e-5 -1.904299,0.20835 -2.490232,0.625 -0.57943,0.41668 -0.869144,1.00913 -0.86914,1.77735 -4e-6,0.64454 0.192053,1.13282 0.576172,1.46484 0.39062,0.32553 1.126297,0.5892 2.20703,0.79102 l 1.19141,0.24414 c 1.47134,0.27995 2.55533,0.77475 3.25195,1.48437 0.70311,0.70313 1.05468,1.64714 1.05469,2.83203 -10e-6,1.41277 -0.47527,2.48373 -1.42578,3.2129 -0.94402,0.72916 -2.33074,1.09375 -4.16016,1.09375 -0.690109,0 -1.425786,-0.0781 -2.207031,-0.23438 -0.774743,-0.15625 -1.578778,-0.38737 -2.412109,-0.69336 l 0,-2.03125 c 0.800779,0.44922 1.585283,0.78776 2.353515,1.01563 0.768225,0.22786 1.523432,0.34179 2.265625,0.34179 1.1263,0 1.99543,-0.22135 2.60742,-0.66406 0.61197,-0.44271 0.91796,-1.07422 0.91797,-1.89453 -1e-5,-0.71614 -0.22136,-1.27604 -0.66406,-1.67969 -0.43621,-0.40364 -1.15561,-0.70637 -2.1582,-0.9082 l -1.201177,-0.23438 c -1.471358,-0.29296 -2.53581,-0.75194 -3.193359,-1.37695 -0.657554,-0.62499 -0.98633,-1.49413 -0.986328,-2.60742 -2e-6,-1.28905 0.452472,-2.30468 1.357422,-3.04688 0.911454,-0.74217 2.164708,-1.11326 3.759762,-1.11328 0.68359,2e-5 1.3802,0.0619 2.08985,0.18555 0.70962,0.12371 1.43553,0.30926 2.17773,0.55664"
           inkscape:connector-curvature="0" />
        <path
           id="path4434"
           style="font-size:20px;text-align:center;text-anchor:middle"
           d="m 114.01726,144.3028 c -1.45183,0 -2.45769,0.16602 -3.01758,0.49804 -0.5599,0.33204 -0.83985,0.89844 -0.83984,1.69922 -1e-5,0.63802 0.20833,1.14584 0.625,1.52344 0.42317,0.37109 0.99608,0.55664 1.71875,0.55664 0.99608,0 1.79361,-0.35156 2.39257,-1.05469 0.60546,-0.70963 0.9082,-1.65039 0.90821,-2.82226 l 0,-0.40039 -1.78711,0 m 3.58398,-0.74219 0,6.24023 -1.79687,0 0,-1.66015 c -0.41017,0.66406 -0.92123,1.1556 -1.53321,1.47461 -0.61198,0.3125 -1.36068,0.46875 -2.24609,0.46875 -1.1198,0 -2.01172,-0.3125 -2.67578,-0.9375 -0.65755,-0.63151 -0.98633,-1.47461 -0.98633,-2.5293 0,-1.23047 0.41016,-2.1582 1.23047,-2.7832 0.82682,-0.625 2.05729,-0.9375 3.69141,-0.9375 l 2.51953,0 0,-0.17579 c -1e-5,-0.82681 -0.27345,-1.46483 -0.82032,-1.91406 -0.54037,-0.45572 -1.30209,-0.68358 -2.28515,-0.68359 -0.62501,1e-5 -1.23373,0.0749 -1.82617,0.22461 -0.59245,0.14975 -1.16212,0.37436 -1.70899,0.67383 l 0,-1.66016 c 0.65755,-0.2539 1.29557,-0.4427 1.91406,-0.56641 0.61849,-0.13019 1.2207,-0.1953 1.80665,-0.19531 1.58202,1e-5 2.76366,0.41017 3.54492,1.23047 0.78124,0.82032 1.17186,2.06381 1.17187,3.73047"
           inkscape:connector-curvature="0" />
        <path
           id="path4436"
           style="font-size:20px;text-align:center;text-anchor:middle"
           d="m 129.8278,140.96295 c 0.44921,-0.80728 0.98632,-1.40298 1.61133,-1.78711 0.62499,-0.3841 1.36067,-0.57616 2.20703,-0.57617 1.13931,1e-5 2.01822,0.4004 2.63672,1.20117 0.61847,0.79428 0.92772,1.92709 0.92774,3.39844 l 0,6.60156 -1.80664,0 0,-6.54297 c -2e-5,-1.04817 -0.18557,-1.82616 -0.55664,-2.33398 -0.37111,-0.5078 -0.93752,-0.76171 -1.69922,-0.76172 -0.93101,1e-5 -1.66668,0.30925 -2.20703,0.92773 -0.54038,0.6185 -0.81056,1.4616 -0.81055,2.5293 l 0,6.18164 -1.80664,0 0,-6.54297 c -1e-5,-1.05468 -0.18556,-1.83267 -0.55664,-2.33398 -0.3711,-0.5078 -0.94402,-0.76171 -1.71875,-0.76172 -0.91798,1e-5 -1.64714,0.31251 -2.1875,0.9375 -0.54037,0.6185 -0.81055,1.45834 -0.81055,2.51953 l 0,6.18164 -1.80664,0 0,-10.9375 1.80664,0 0,1.69922 c 0.41015,-0.67056 0.90169,-1.16535 1.47461,-1.48437 0.57291,-0.319 1.25325,-0.47851 2.04102,-0.47852 0.79426,1e-5 1.46809,0.20183 2.02148,0.60547 0.55989,0.40366 0.9733,0.98959 1.24023,1.75781"
           inkscape:connector-curvature="0" />
        <path
           id="path4438"
           style="font-size:20px;text-align:center;text-anchor:middle"
           d="m 142.54265,148.16022 0,5.80078 -1.80664,0 0,-15.09766 1.80664,0 0,1.66016 c 0.3776,-0.65103 0.85286,-1.1328 1.42578,-1.44531 0.57942,-0.319 1.26952,-0.47851 2.07031,-0.47852 1.32812,1e-5 2.40559,0.52735 3.23242,1.58203 0.83333,1.0547 1.24999,2.44142 1.25,4.16016 -1e-5,1.71875 -0.41667,3.10547 -1.25,4.16015 -0.82683,1.05469 -1.9043,1.58204 -3.23242,1.58204 -0.80079,0 -1.49089,-0.15625 -2.07031,-0.46875 -0.57292,-0.31901 -1.04818,-0.80404 -1.42578,-1.45508 m 6.11328,-3.81836 c -1e-5,-1.32161 -0.27345,-2.35677 -0.82031,-3.10547 -0.54038,-0.7552 -1.28582,-1.1328 -2.23633,-1.13281 -0.95053,1e-5 -1.69922,0.37761 -2.24609,1.13281 -0.54037,0.7487 -0.81056,1.78386 -0.81055,3.10547 -1e-5,1.32162 0.27018,2.36003 0.81055,3.11523 0.54687,0.7487 1.29556,1.12305 2.24609,1.12305 0.95051,0 1.69595,-0.37435 2.23633,-1.12305 0.54686,-0.7552 0.8203,-1.79361 0.82031,-3.11523"
           inkscape:connector-curvature="0" />
        <path
           id="path4440"
           style="font-size:20px;text-align:center;text-anchor:middle"
           d="m 153.49968,134.60553 1.79687,0 0,15.19531 -1.79687,0 0,-15.19531"
           inkscape:connector-curvature="0" />
        <path
           id="path4442"
           style="font-size:20px;text-align:center;text-anchor:middle"
           d="m 168.40202,143.88287 0,0.87891 -8.26172,0 c 0.0781,1.23698 0.44922,2.18099 1.11329,2.83203 0.67056,0.64453 1.60155,0.9668 2.79296,0.9668 0.6901,0 1.35742,-0.0846 2.00196,-0.25391 0.65103,-0.16927 1.29556,-0.42317 1.93359,-0.76172 l 0,1.69922 c -0.64454,0.27344 -1.30535,0.48177 -1.98242,0.625 -0.67709,0.14323 -1.36394,0.21485 -2.06055,0.21485 -1.74479,0 -3.12826,-0.50782 -4.15039,-1.52344 -1.01562,-1.01562 -1.52344,-2.38932 -1.52344,-4.1211 0,-1.79035 0.48177,-3.20962 1.44532,-4.25781 0.97005,-1.05468 2.27538,-1.58202 3.91601,-1.58203 1.47135,1e-5 2.63346,0.47527 3.48633,1.42578 0.85937,0.94402 1.28905,2.22983 1.28906,3.85742 m -1.79687,-0.52734 c -0.013,-0.98307 -0.28972,-1.76757 -0.83008,-2.35352 -0.53386,-0.58592 -1.2435,-0.87889 -2.12891,-0.8789 -1.00261,1e-5 -1.80664,0.28321 -2.41211,0.84961 -0.59896,0.56641 -0.94401,1.36394 -1.03515,2.39258 l 6.40625,-0.01"
           inkscape:connector-curvature="0" />
        <path
           id="path4444"
           style="font-size:20px;text-align:center;text-anchor:middle"
           d="m 178.3239,139.18561 0,1.69922 c -0.50782,-0.26041 -1.03517,-0.45572 -1.58203,-0.58594 -0.54688,-0.1302 -1.11329,-0.1953 -1.69922,-0.19531 -0.89193,1e-5 -1.56251,0.13672 -2.01172,0.41015 -0.44271,0.27345 -0.66407,0.68361 -0.66406,1.23047 -1e-5,0.41668 0.1595,0.74545 0.47851,0.98633 0.31901,0.23438 0.96028,0.45899 1.92383,0.67383 l 0.61524,0.13672 c 1.27603,0.27344 2.18098,0.66081 2.71484,1.16211 0.54035,0.49479 0.81054,1.18815 0.81055,2.08007 -1e-5,1.01563 -0.40366,1.81967 -1.21094,2.41211 -0.80079,0.59245 -1.9043,0.88868 -3.31055,0.88868 -0.58594,0 -1.19792,-0.0586 -1.83594,-0.17579 -0.63151,-0.11067 -1.29883,-0.27994 -2.00195,-0.50781 l 0,-1.85547 c 0.66406,0.34506 1.31836,0.60547 1.96289,0.78125 0.64453,0.16928 1.28255,0.25391 1.91406,0.25391 0.84635,0 1.49739,-0.14323 1.95313,-0.42969 0.45572,-0.29297 0.68359,-0.70312 0.68359,-1.23047 0,-0.48827 -0.16602,-0.86262 -0.49804,-1.12304 -0.32553,-0.26042 -1.04493,-0.51107 -2.15821,-0.75196 l -0.625,-0.14648 c -1.11328,-0.23437 -1.91732,-0.59244 -2.41211,-1.07422 -0.49479,-0.48828 -0.74219,-1.15559 -0.74218,-2.00195 -1e-5,-1.02864 0.36458,-1.82291 1.09375,-2.38282 0.72916,-0.55988 1.76431,-0.83983 3.10546,-0.83984 0.66406,1e-5 1.28906,0.0488 1.875,0.14648 0.58593,0.0977 1.1263,0.24416 1.6211,0.43946"
           inkscape:connector-curvature="0" />
      </g>
      <g
         id="text4620"
         style="font-size:40px;font-style:normal;font-weight:normal;line-height:125%;letter-spacing:0px;word-spacing:0px;fill:#000000;fill-opacity:1;stroke:none;font-family:Sans"
         transform="translate(-285.96287,429.79441)">
        <path
           id="path4447"
           style="font-size:20px;text-align:center;text-anchor:middle"
           d="m 777.60126,136.84186 0,5.47851 2.48047,0 c 0.91796,1e-5 1.62759,-0.23762 2.1289,-0.71289 0.5013,-0.47525 0.75195,-1.15233 0.75196,-2.03125 -10e-6,-0.87238 -0.25066,-1.54621 -0.75196,-2.02148 -0.50131,-0.47525 -1.21094,-0.71288 -2.1289,-0.71289 l -2.48047,0 m -1.97266,-1.6211 4.45313,0 c 1.6341,2e-5 2.86783,0.37111 3.70117,1.11329 0.83983,0.73569 1.25975,1.81641 1.25976,3.24218 -10e-6,1.43881 -0.41993,2.52605 -1.25976,3.26172 -0.83334,0.73568 -2.06707,1.10352 -3.70117,1.10352 l -2.48047,0 0,5.85937 -1.97266,0 0,-14.58008"
           inkscape:connector-curvature="0" />
        <path
           id="path4449"
           style="font-size:20px;text-align:center;text-anchor:middle"
           d="m 787.08368,145.48444 0,-6.6211 1.79687,0 0,6.55274 c 0,1.03516 0.20182,1.81315 0.60547,2.33398 0.40364,0.51433 1.00911,0.77149 1.81641,0.77149 0.97004,0 1.73502,-0.30925 2.29492,-0.92774 0.5664,-0.61849 0.8496,-1.46158 0.84961,-2.5293 l 0,-6.20117 1.79688,0 0,10.9375 -1.79688,0 0,-1.67969 c -0.43621,0.66407 -0.94402,1.15886 -1.52344,1.48438 -0.57292,0.31901 -1.24024,0.47852 -2.00195,0.47852 -1.25651,0 -2.21029,-0.39063 -2.86133,-1.17188 -0.65104,-0.78125 -0.97656,-1.92382 -0.97656,-3.42773 m 4.52148,-6.88477 0,0"
           inkscape:connector-curvature="0" />
        <path
           id="path4451"
           style="font-size:20px;text-align:center;text-anchor:middle"
           d="m 808.48016,140.96295 c 0.44921,-0.80728 0.98632,-1.40298 1.61133,-1.78711 0.62499,-0.3841 1.36067,-0.57616 2.20703,-0.57617 1.13931,1e-5 2.01822,0.4004 2.63672,1.20117 0.61847,0.79428 0.92772,1.92709 0.92774,3.39844 l 0,6.60156 -1.80664,0 0,-6.54297 c -2e-5,-1.04817 -0.18557,-1.82616 -0.55665,-2.33398 -0.3711,-0.5078 -0.93751,-0.76171 -1.69921,-0.76172 -0.93101,1e-5 -1.66668,0.30925 -2.20704,0.92773 -0.54037,0.6185 -0.81055,1.4616 -0.81054,2.5293 l 0,6.18164 -1.80664,0 0,-6.54297 c -10e-6,-1.05468 -0.18556,-1.83267 -0.55664,-2.33398 -0.37111,-0.5078 -0.94402,-0.76171 -1.71875,-0.76172 -0.91798,1e-5 -1.64714,0.31251 -2.1875,0.9375 -0.54037,0.6185 -0.81055,1.45834 -0.81055,2.51953 l 0,6.18164 -1.80664,0 0,-10.9375 1.80664,0 0,1.69922 c 0.41015,-0.67056 0.90169,-1.16535 1.47461,-1.48437 0.57291,-0.319 1.25325,-0.47851 2.04101,-0.47852 0.79427,1e-5 1.4681,0.20183 2.02149,0.60547 0.55989,0.40366 0.9733,0.98959 1.24023,1.75781"
           inkscape:connector-curvature="0" />
        <path
           id="path4453"
           style="font-size:20px;text-align:center;text-anchor:middle"
           d="m 821.19501,148.16022 0,5.80078 -1.80664,0 0,-15.09766 1.80664,0 0,1.66016 c 0.3776,-0.65103 0.85286,-1.1328 1.42578,-1.44531 0.57942,-0.319 1.26952,-0.47851 2.07031,-0.47852 1.32812,1e-5 2.40559,0.52735 3.23242,1.58203 0.83333,1.0547 1.24999,2.44142 1.25,4.16016 -1e-5,1.71875 -0.41667,3.10547 -1.25,4.16015 -0.82683,1.05469 -1.9043,1.58204 -3.23242,1.58204 -0.80079,0 -1.49089,-0.15625 -2.07031,-0.46875 -0.57292,-0.31901 -1.04818,-0.80404 -1.42578,-1.45508 m 6.11328,-3.81836 c -1e-5,-1.32161 -0.27345,-2.35677 -0.82031,-3.10547 -0.54038,-0.7552 -1.28582,-1.1328 -2.23633,-1.13281 -0.95053,1e-5 -1.69923,0.37761 -2.2461,1.13281 -0.54036,0.7487 -0.81055,1.78386 -0.81054,3.10547 -10e-6,1.32162 0.27018,2.36003 0.81054,3.11523 0.54687,0.7487 1.29557,1.12305 2.2461,1.12305 0.95051,0 1.69595,-0.37435 2.23633,-1.12305 0.54686,-0.7552 0.8203,-1.79361 0.82031,-3.11523"
           inkscape:connector-curvature="0" />
        <path
           id="path4455"
           style="font-size:20px;text-align:center;text-anchor:middle"
           d="m 839.12469,139.18561 0,1.69922 c -0.50782,-0.26041 -1.03516,-0.45572 -1.58203,-0.58594 -0.54688,-0.1302 -1.11328,-0.1953 -1.69922,-0.19531 -0.89193,1e-5 -1.5625,0.13672 -2.01171,0.41015 -0.44272,0.27345 -0.66407,0.68361 -0.66407,1.23047 0,0.41668 0.15951,0.74545 0.47852,0.98633 0.31901,0.23438 0.96028,0.45899 1.92383,0.67383 l 0.61523,0.13672 c 1.27604,0.27344 2.18098,0.66081 2.71485,1.16211 0.54035,0.49479 0.81053,1.18815 0.81054,2.08007 -1e-5,1.01563 -0.40365,1.81967 -1.21094,2.41211 -0.80078,0.59245 -1.9043,0.88868 -3.31054,0.88868 -0.58594,0 -1.19792,-0.0586 -1.83594,-0.17579 -0.63151,-0.11067 -1.29883,-0.27994 -2.00195,-0.50781 l 0,-1.85547 c 0.66406,0.34506 1.31835,0.60547 1.96289,0.78125 0.64453,0.16928 1.28255,0.25391 1.91406,0.25391 0.84635,0 1.49739,-0.14323 1.95313,-0.42969 0.45572,-0.29297 0.68358,-0.70312 0.68359,-1.23047 -10e-6,-0.48827 -0.16602,-0.86262 -0.49805,-1.12304 -0.32553,-0.26042 -1.04493,-0.51107 -2.1582,-0.75196 l -0.625,-0.14648 c -1.11329,-0.23437 -1.91732,-0.59244 -2.41211,-1.07422 -0.49479,-0.48828 -0.74219,-1.15559 -0.74219,-2.00195 0,-1.02864 0.36458,-1.82291 1.09375,-2.38282 0.72917,-0.55988 1.76432,-0.83983 3.10547,-0.83984 0.66406,1e-5 1.28906,0.0488 1.875,0.14648 0.58593,0.0977 1.12629,0.24416 1.62109,0.43946"
           inkscape:connector-curvature="0" />
      </g>
      <path
         inkscape:connector-curvature="0"
         id="path4427"
         d="m 482.26045,780.66428 5,-10 0,0 5,10 0,0"
         style="fill:none;stroke:#000000;stroke-width:1.5;stroke-linecap:butt;stroke-linejoin:miter;stroke-miterlimit:4;stroke-opacity:1;stroke-dasharray:none"
         inkscape:transform-center-x="5.75"
         inkscape:transform-center-y="-5.75" />
      <path
         inkscape:connector-curvature="0"
         id="path4429"
         d="m -371.69379,816.09959 10,5 0,0 -10,5 0,0"
         style="fill:none;stroke:#000000;stroke-width:1.5;stroke-linecap:butt;stroke-linejoin:miter;stroke-miterlimit:4;stroke-opacity:1;stroke-dasharray:none" />
      <path
         style="fill:none;stroke:#000000;stroke-width:1.38964784;stroke-miterlimit:4;stroke-opacity:1"
         d="m 339.49326,789.84857 78.61036,0 0,78.61035 -78.61036,0 z"
         id="rect3173"
         inkscape:connector-curvature="0" />
      <g
         style="font-size:40px;font-style:normal;font-weight:normal;line-height:125%;letter-spacing:0px;word-spacing:0px;fill:#000000;fill-opacity:1;stroke:none;font-family:Sans"
         id="text3955">
        <path
           d="m 358.74374,812.39594 0,10.95703 4.96094,0 c 1.83592,10e-6 3.25519,-0.47525 4.25781,-1.42578 1.00259,-0.95051 1.50389,-2.30467 1.50391,-4.0625 -2e-5,-1.74477 -0.50132,-3.09243 -1.50391,-4.04297 -1.00262,-0.9505 -2.42189,-1.42576 -4.25781,-1.42578 l -4.96094,0 m -3.94531,-3.24219 8.90625,0 c 3.26821,3e-5 5.73566,0.74221 7.40235,2.22656 1.67966,1.47138 2.5195,3.63284 2.51953,6.48438 -3e-5,2.87762 -0.83987,5.05209 -2.51953,6.52343 -1.66669,1.47137 -4.13414,2.20705 -7.40235,2.20703 l -4.96094,0 0,11.71875 -3.94531,0 0,-29.16015"
           id="path4291"
           inkscape:connector-curvature="0" />
        <path
           d="m 380.0026,844.15567 8.95032,0 0,2.15823 -12.03532,0 0,-2.15823 c 0.97332,-1.00717 2.29788,-2.35712 3.97369,-4.04986 1.68426,-1.70119 2.74222,-2.79723 3.17387,-3.28813 0.82097,-0.92253 1.39226,-1.70119 1.71389,-2.33597 0.33007,-0.64323 0.49511,-1.27377 0.49513,-1.89163 -2e-5,-1.00716 -0.35549,-1.82814 -1.06643,-2.46293 -0.70249,-0.63476 -1.62079,-0.95214 -2.75492,-0.95216 -0.80405,2e-5 -1.65465,0.13967 -2.55179,0.41895 -0.88869,0.27932 -1.84085,0.7025 -2.85649,1.26955 l 0,-2.58988 c 1.03257,-0.4147 1.99742,-0.72786 2.89458,-0.93947 0.89714,-0.21157 1.71811,-0.31736 2.46292,-0.31738 1.96356,2e-5 3.52934,0.49091 4.69733,1.47267 1.16797,0.98181 1.75197,2.29367 1.75198,3.93561 -10e-6,0.77867 -0.14813,1.51924 -0.44434,2.22171 -0.28778,0.69403 -0.81676,1.515 -1.58694,2.46292 -0.2116,0.24546 -0.88446,0.9564 -2.01858,2.13285 -1.13414,1.16799 -2.73377,2.8057 -4.7989,4.91315"
           style="font-size:65.00091553%;baseline-shift:sub"
           id="path4293"
           inkscape:connector-curvature="0" />
        <path
           d="m 404.2256,839.21712 c -10e-6,-1.71811 -0.35549,-3.06383 -1.06642,-4.03716 -0.7025,-0.98177 -1.67158,-1.47267 -2.90727,-1.47268 -1.2357,10e-6 -2.20902,0.49091 -2.91996,1.47268 -0.70249,0.97333 -1.05373,2.31905 -1.05373,4.03716 0,1.71813 0.35124,3.06809 1.05373,4.04987 0.71094,0.97332 1.68426,1.45998 2.91996,1.45998 1.23569,0 2.20477,-0.48666 2.90727,-1.45998 0.71093,-0.98178 1.06641,-2.33174 1.06642,-4.04987 m -7.94738,-4.96393 c 0.49089,-0.84636 1.10874,-1.47267 1.85354,-1.87894 0.75326,-0.4147 1.65041,-0.62206 2.69145,-0.62207 1.72657,1e-5 3.12731,0.68557 4.20221,2.05666 1.08333,1.37113 1.625,3.17389 1.62502,5.40828 -2e-5,2.23442 -0.54169,4.03717 -1.62502,5.40828 -1.0749,1.37112 -2.47564,2.05667 -4.20221,2.05667 -1.04104,0 -1.93819,-0.20312 -2.69145,-0.60938 -0.7448,-0.41472 -1.36265,-1.04526 -1.85354,-1.89163 l 0,2.13284 -2.34866,0 0,-19.75418 2.34866,0 0,7.69347"
           style="font-size:65.00091553%;baseline-shift:sub"
           id="path4295"
           inkscape:connector-curvature="0" />
      </g>
      <path
         style="fill:none;stroke:#000000;stroke-width:1.38964784;stroke-miterlimit:4;stroke-opacity:1;display:inline"
         d="m -320.43253,790.00879 78.61037,0 0,78.61035 -78.61037,0 z"
         id="rect3173-5"
         inkscape:connector-curvature="0" />
      <g
         style="font-size:40px;font-style:normal;font-weight:normal;line-height:125%;letter-spacing:0px;word-spacing:0px;fill:#000000;fill-opacity:1;stroke:none;display:inline;font-family:Sans"
         id="text3955-6">
        <path
           d="m -301.18204,812.55609 0,10.95703 4.96094,0 c 1.83592,2e-5 3.25519,-0.47524 4.25781,-1.42578 1.00259,-0.9505 1.50389,-2.30467 1.50391,-4.0625 -2e-5,-1.74477 -0.50132,-3.09242 -1.50391,-4.04297 -1.00262,-0.95049 -2.42189,-1.42575 -4.25781,-1.42578 l -4.96094,0 m -3.94531,-3.24219 8.90625,0 c 3.26821,3e-5 5.73566,0.74222 7.40234,2.22657 1.67967,1.47138 2.51951,3.63283 2.51954,6.48437 -3e-5,2.87762 -0.83987,5.0521 -2.51954,6.52344 -1.66668,1.47137 -4.13413,2.20704 -7.40234,2.20703 l -4.96094,0 0,11.71875 -3.94531,0 0,-29.16016"
           id="path4298"
           inkscape:connector-curvature="0" />
        <path
           d="m -279.92318,844.31583 8.95032,0 0,2.15823 -12.03532,0 0,-2.15823 c 0.97332,-1.00718 2.29788,-2.35713 3.97369,-4.04987 1.68426,-1.70118 2.74221,-2.79723 3.17387,-3.28813 0.82096,-0.92253 1.39226,-1.70118 1.71389,-2.33597 0.33007,-0.64322 0.49511,-1.27377 0.49512,-1.89163 -10e-6,-1.00716 -0.35548,-1.82813 -1.06642,-2.46292 -0.70249,-0.63476 -1.6208,-0.95215 -2.75492,-0.95216 -0.80405,10e-6 -1.65465,0.13966 -2.55179,0.41895 -0.88869,0.27932 -1.84085,0.7025 -2.85649,1.26955 l 0,-2.58988 c 1.03257,-0.4147 1.99742,-0.72786 2.89457,-0.93947 0.89715,-0.21157 1.71812,-0.31737 2.46293,-0.31739 1.96356,2e-5 3.52934,0.49091 4.69733,1.47268 1.16797,0.9818 1.75197,2.29367 1.75198,3.9356 -1e-5,0.77867 -0.14813,1.51924 -0.44434,2.22171 -0.28778,0.69403 -0.81676,1.51501 -1.58694,2.46293 -0.2116,0.24545 -0.88446,0.9564 -2.01858,2.13284 -1.13414,1.16799 -2.73377,2.80571 -4.7989,4.91316"
           style="font-size:65.00091553%;baseline-shift:sub"
           id="path4300"
           inkscape:connector-curvature="0" />
        <path
           d="m -259.44535,839.3265 c -1.8874,10e-6 -3.19504,0.21583 -3.92291,0.64747 -0.72788,0.43165 -1.09181,1.16799 -1.09181,2.20901 0,0.82945 0.27083,1.48961 0.81251,1.9805 0.55013,0.48243 1.29494,0.72365 2.23441,0.72364 1.29493,10e-6 2.33173,-0.45703 3.11039,-1.37111 0.78711,-0.92253 1.18067,-2.14553 1.18068,-3.669 l 0,-0.52051 -2.32327,0 m 4.65924,-0.96486 0,8.11242 -2.33597,0 0,-2.15823 c -0.53322,0.86329 -1.19761,1.5023 -1.99319,1.91702 -0.79559,0.40625 -1.76891,0.60938 -2.91996,0.60938 -1.45576,0 -2.61528,-0.40626 -3.47857,-1.21877 -0.85483,-0.82097 -1.28224,-1.91701 -1.28224,-3.28813 0,-1.59963 0.53321,-2.8057 1.59963,-3.61822 1.07488,-0.8125 2.67451,-1.21875 4.7989,-1.21876 l 3.27543,0 0,-0.22852 c -1e-5,-1.07488 -0.35548,-1.90431 -1.06642,-2.48832 -0.70249,-0.59244 -1.69274,-0.88867 -2.97074,-0.88868 -0.81252,10e-6 -1.60387,0.0973 -2.37406,0.29199 -0.7702,0.19468 -1.51077,0.48668 -2.22171,0.87599 l 0,-2.15823 c 0.85483,-0.33007 1.68426,-0.57551 2.48832,-0.73634 0.80404,-0.16926 1.58693,-0.25389 2.34866,-0.25391 2.05666,2e-5 3.59282,0.53323 4.60847,1.59963 1.01562,1.06644 1.52344,2.68299 1.52345,4.84968"
           style="font-size:65.00091553%;baseline-shift:sub"
           id="path4302"
           inkscape:connector-curvature="0" />
      </g>
      <path
         style="fill:none;stroke:#000000;stroke-width:1.5;stroke-linecap:butt;stroke-linejoin:miter;stroke-miterlimit:4;stroke-opacity:1;stroke-dasharray:none"
         d="m 432.24776,831.51517 45,0 0,0 c 4.73692,-1.22795 9.22929,-2.82274 10,-10 l 0,-50"
         id="path4043"
         inkscape:connector-curvature="0"
         sodipodi:nodetypes="ccccc" />
      <path
         inkscape:connector-curvature="0"
         id="path3075-1"
         d="m -232.16782,1001.0996 c 560,0 560,0 560,0"
         style="fill:none;stroke:#000000;stroke-width:2.17515898;stroke-linecap:butt;stroke-linejoin:miter;stroke-miterlimit:4;stroke-opacity:1;stroke-dasharray:none;display:inline" />
      <path
         inkscape:connector-curvature="0"
         id="path3077-2"
         d="m -232.16782,1091.0996 560,0 0,0"
         style="fill:none;stroke:#000000;stroke-width:2.17515898;stroke-linecap:butt;stroke-linejoin:miter;stroke-miterlimit:4;stroke-opacity:1;stroke-dasharray:none;display:inline" />
      <g
         id="text4614-3"
         style="font-size:40px;font-style:normal;font-weight:normal;line-height:125%;letter-spacing:0px;word-spacing:0px;fill:#000000;fill-opacity:1;stroke:none;display:inline;font-family:Sans"
         transform="translate(-451.16208,1087.0542)">
        <path
           id="path4432-7"
           style="font-size:20px;text-align:center;text-anchor:middle"
           d="m 105.1696,135.69928 0,1.92383 c -0.74871,-0.35806 -1.45509,-0.62499 -2.11914,-0.80078 -0.66407,-0.17577 -1.30535,-0.26366 -1.92383,-0.26368 -1.07422,2e-5 -1.904299,0.20835 -2.490232,0.625 -0.57943,0.41668 -0.869144,1.00913 -0.86914,1.77735 -4e-6,0.64454 0.192053,1.13282 0.576172,1.46484 0.39062,0.32553 1.126297,0.5892 2.20703,0.79102 l 1.19141,0.24414 c 1.47134,0.27995 2.55533,0.77475 3.25195,1.48437 0.70311,0.70313 1.05468,1.64714 1.05469,2.83203 -10e-6,1.41277 -0.47527,2.48373 -1.42578,3.2129 -0.94402,0.72916 -2.33074,1.09375 -4.16016,1.09375 -0.690109,0 -1.425786,-0.0781 -2.207031,-0.23438 -0.774743,-0.15625 -1.578778,-0.38737 -2.412109,-0.69336 l 0,-2.03125 c 0.800779,0.44922 1.585283,0.78776 2.353515,1.01563 0.768225,0.22786 1.523432,0.34179 2.265625,0.34179 1.1263,0 1.99543,-0.22135 2.60742,-0.66406 0.61197,-0.44271 0.91796,-1.07422 0.91797,-1.89453 -1e-5,-0.71614 -0.22136,-1.27604 -0.66406,-1.67969 -0.43621,-0.40364 -1.15561,-0.70637 -2.1582,-0.9082 l -1.201177,-0.23438 c -1.471358,-0.29296 -2.53581,-0.75194 -3.193359,-1.37695 -0.657554,-0.62499 -0.98633,-1.49413 -0.986328,-2.60742 -2e-6,-1.28905 0.452472,-2.30468 1.357422,-3.04688 0.911454,-0.74217 2.164708,-1.11326 3.759762,-1.11328 0.68359,2e-5 1.3802,0.0619 2.08985,0.18555 0.70962,0.12371 1.43553,0.30926 2.17773,0.55664"
           inkscape:connector-curvature="0" />
        <path
           id="path4434-5"
           style="font-size:20px;text-align:center;text-anchor:middle"
           d="m 114.01726,144.3028 c -1.45183,0 -2.45769,0.16602 -3.01758,0.49804 -0.5599,0.33204 -0.83985,0.89844 -0.83984,1.69922 -1e-5,0.63802 0.20833,1.14584 0.625,1.52344 0.42317,0.37109 0.99608,0.55664 1.71875,0.55664 0.99608,0 1.79361,-0.35156 2.39257,-1.05469 0.60546,-0.70963 0.9082,-1.65039 0.90821,-2.82226 l 0,-0.40039 -1.78711,0 m 3.58398,-0.74219 0,6.24023 -1.79687,0 0,-1.66015 c -0.41017,0.66406 -0.92123,1.1556 -1.53321,1.47461 -0.61198,0.3125 -1.36068,0.46875 -2.24609,0.46875 -1.1198,0 -2.01172,-0.3125 -2.67578,-0.9375 -0.65755,-0.63151 -0.98633,-1.47461 -0.98633,-2.5293 0,-1.23047 0.41016,-2.1582 1.23047,-2.7832 0.82682,-0.625 2.05729,-0.9375 3.69141,-0.9375 l 2.51953,0 0,-0.17579 c -1e-5,-0.82681 -0.27345,-1.46483 -0.82032,-1.91406 -0.54037,-0.45572 -1.30209,-0.68358 -2.28515,-0.68359 -0.62501,1e-5 -1.23373,0.0749 -1.82617,0.22461 -0.59245,0.14975 -1.16212,0.37436 -1.70899,0.67383 l 0,-1.66016 c 0.65755,-0.2539 1.29557,-0.4427 1.91406,-0.56641 0.61849,-0.13019 1.2207,-0.1953 1.80665,-0.19531 1.58202,1e-5 2.76366,0.41017 3.54492,1.23047 0.78124,0.82032 1.17186,2.06381 1.17187,3.73047"
           inkscape:connector-curvature="0" />
        <path
           id="path4436-9"
           style="font-size:20px;text-align:center;text-anchor:middle"
           d="m 129.8278,140.96295 c 0.44921,-0.80728 0.98632,-1.40298 1.61133,-1.78711 0.62499,-0.3841 1.36067,-0.57616 2.20703,-0.57617 1.13931,1e-5 2.01822,0.4004 2.63672,1.20117 0.61847,0.79428 0.92772,1.92709 0.92774,3.39844 l 0,6.60156 -1.80664,0 0,-6.54297 c -2e-5,-1.04817 -0.18557,-1.82616 -0.55664,-2.33398 -0.37111,-0.5078 -0.93752,-0.76171 -1.69922,-0.76172 -0.93101,1e-5 -1.66668,0.30925 -2.20703,0.92773 -0.54038,0.6185 -0.81056,1.4616 -0.81055,2.5293 l 0,6.18164 -1.80664,0 0,-6.54297 c -1e-5,-1.05468 -0.18556,-1.83267 -0.55664,-2.33398 -0.3711,-0.5078 -0.94402,-0.76171 -1.71875,-0.76172 -0.91798,1e-5 -1.64714,0.31251 -2.1875,0.9375 -0.54037,0.6185 -0.81055,1.45834 -0.81055,2.51953 l 0,6.18164 -1.80664,0 0,-10.9375 1.80664,0 0,1.69922 c 0.41015,-0.67056 0.90169,-1.16535 1.47461,-1.48437 0.57291,-0.319 1.25325,-0.47851 2.04102,-0.47852 0.79426,1e-5 1.46809,0.20183 2.02148,0.60547 0.55989,0.40366 0.9733,0.98959 1.24023,1.75781"
           inkscape:connector-curvature="0" />
        <path
           id="path4438-2"
           style="font-size:20px;text-align:center;text-anchor:middle"
           d="m 142.54265,148.16022 0,5.80078 -1.80664,0 0,-15.09766 1.80664,0 0,1.66016 c 0.3776,-0.65103 0.85286,-1.1328 1.42578,-1.44531 0.57942,-0.319 1.26952,-0.47851 2.07031,-0.47852 1.32812,1e-5 2.40559,0.52735 3.23242,1.58203 0.83333,1.0547 1.24999,2.44142 1.25,4.16016 -1e-5,1.71875 -0.41667,3.10547 -1.25,4.16015 -0.82683,1.05469 -1.9043,1.58204 -3.23242,1.58204 -0.80079,0 -1.49089,-0.15625 -2.07031,-0.46875 -0.57292,-0.31901 -1.04818,-0.80404 -1.42578,-1.45508 m 6.11328,-3.81836 c -1e-5,-1.32161 -0.27345,-2.35677 -0.82031,-3.10547 -0.54038,-0.7552 -1.28582,-1.1328 -2.23633,-1.13281 -0.95053,1e-5 -1.69922,0.37761 -2.24609,1.13281 -0.54037,0.7487 -0.81056,1.78386 -0.81055,3.10547 -1e-5,1.32162 0.27018,2.36003 0.81055,3.11523 0.54687,0.7487 1.29556,1.12305 2.24609,1.12305 0.95051,0 1.69595,-0.37435 2.23633,-1.12305 0.54686,-0.7552 0.8203,-1.79361 0.82031,-3.11523"
           inkscape:connector-curvature="0" />
        <path
           id="path4440-2"
           style="font-size:20px;text-align:center;text-anchor:middle"
           d="m 153.49968,134.60553 1.79687,0 0,15.19531 -1.79687,0 0,-15.19531"
           inkscape:connector-curvature="0" />
        <path
           id="path4442-8"
           style="font-size:20px;text-align:center;text-anchor:middle"
           d="m 168.40202,143.88287 0,0.87891 -8.26172,0 c 0.0781,1.23698 0.44922,2.18099 1.11329,2.83203 0.67056,0.64453 1.60155,0.9668 2.79296,0.9668 0.6901,0 1.35742,-0.0846 2.00196,-0.25391 0.65103,-0.16927 1.29556,-0.42317 1.93359,-0.76172 l 0,1.69922 c -0.64454,0.27344 -1.30535,0.48177 -1.98242,0.625 -0.67709,0.14323 -1.36394,0.21485 -2.06055,0.21485 -1.74479,0 -3.12826,-0.50782 -4.15039,-1.52344 -1.01562,-1.01562 -1.52344,-2.38932 -1.52344,-4.1211 0,-1.79035 0.48177,-3.20962 1.44532,-4.25781 0.97005,-1.05468 2.27538,-1.58202 3.91601,-1.58203 1.47135,1e-5 2.63346,0.47527 3.48633,1.42578 0.85937,0.94402 1.28905,2.22983 1.28906,3.85742 m -1.79687,-0.52734 c -0.013,-0.98307 -0.28972,-1.76757 -0.83008,-2.35352 -0.53386,-0.58592 -1.2435,-0.87889 -2.12891,-0.8789 -1.00261,1e-5 -1.80664,0.28321 -2.41211,0.84961 -0.59896,0.56641 -0.94401,1.36394 -1.03515,2.39258 l 6.40625,-0.01"
           inkscape:connector-curvature="0" />
        <path
           id="path4444-9"
           style="font-size:20px;text-align:center;text-anchor:middle"
           d="m 178.3239,139.18561 0,1.69922 c -0.50782,-0.26041 -1.03517,-0.45572 -1.58203,-0.58594 -0.54688,-0.1302 -1.11329,-0.1953 -1.69922,-0.19531 -0.89193,1e-5 -1.56251,0.13672 -2.01172,0.41015 -0.44271,0.27345 -0.66407,0.68361 -0.66406,1.23047 -1e-5,0.41668 0.1595,0.74545 0.47851,0.98633 0.31901,0.23438 0.96028,0.45899 1.92383,0.67383 l 0.61524,0.13672 c 1.27603,0.27344 2.18098,0.66081 2.71484,1.16211 0.54035,0.49479 0.81054,1.18815 0.81055,2.08007 -1e-5,1.01563 -0.40366,1.81967 -1.21094,2.41211 -0.80079,0.59245 -1.9043,0.88868 -3.31055,0.88868 -0.58594,0 -1.19792,-0.0586 -1.83594,-0.17579 -0.63151,-0.11067 -1.29883,-0.27994 -2.00195,-0.50781 l 0,-1.85547 c 0.66406,0.34506 1.31836,0.60547 1.96289,0.78125 0.64453,0.16928 1.28255,0.25391 1.91406,0.25391 0.84635,0 1.49739,-0.14323 1.95313,-0.42969 0.45572,-0.29297 0.68359,-0.70312 0.68359,-1.23047 0,-0.48827 -0.16602,-0.86262 -0.49804,-1.12304 -0.32553,-0.26042 -1.04493,-0.51107 -2.15821,-0.75196 l -0.625,-0.14648 c -1.11328,-0.23437 -1.91732,-0.59244 -2.41211,-1.07422 -0.49479,-0.48828 -0.74219,-1.15559 -0.74218,-2.00195 -1e-5,-1.02864 0.36458,-1.82291 1.09375,-2.38282 0.72916,-0.55988 1.76431,-0.83983 3.10546,-0.83984 0.66406,1e-5 1.28906,0.0488 1.875,0.14648 0.58593,0.0977 1.1263,0.24416 1.6211,0.43946"
           inkscape:connector-curvature="0" />
      </g>
      <path
         inkscape:connector-curvature="0"
         id="path4427-3"
         d="m 481.78642,1000.6643 5,-9.99996 0,0 5,9.99996 0,0"
         style="fill:none;stroke:#000000;stroke-width:1.5;stroke-linecap:butt;stroke-linejoin:miter;stroke-miterlimit:4;stroke-opacity:1;stroke-dasharray:none;display:inline"
         inkscape:transform-center-x="5.75"
         inkscape:transform-center-y="-5.75" />
      <path
         inkscape:connector-curvature="0"
         id="path4429-1"
         d="m -252.16782,1036.0996 10,5 0,0 -10,5 0,0"
         style="fill:none;stroke:#000000;stroke-width:1.5;stroke-linecap:butt;stroke-linejoin:miter;stroke-miterlimit:4;stroke-opacity:1;stroke-dasharray:none;display:inline" />
      <path
         style="fill:none;stroke:#000000;stroke-width:1.38964784;stroke-miterlimit:4;stroke-opacity:1;display:inline"
         d="m 339.01923,1009.8487 78.61036,0 0,78.6103 -78.61036,0 z"
         id="rect3173-9"
         inkscape:connector-curvature="0" />
      <g
         style="font-size:40px;font-style:normal;font-weight:normal;line-height:125%;letter-spacing:0px;word-spacing:0px;fill:#000000;fill-opacity:1;stroke:none;display:inline;font-family:Sans"
         id="text3955-4"
         transform="translate(-10,0)">
        <path
           d="m 368.26971,1032.396 0,10.957 4.96094,0 c 1.83592,0 3.25519,-0.4752 4.25781,-1.4258 1.00259,-0.9505 1.50389,-2.3046 1.50391,-4.0625 -2e-5,-1.7447 -0.50132,-3.0924 -1.50391,-4.0429 -1.00262,-0.9505 -2.42189,-1.4258 -4.25781,-1.4258 l -4.96094,0 m -3.94531,-3.2422 8.90625,0 c 3.26821,0 5.73566,0.7422 7.40235,2.2266 1.67966,1.4714 2.5195,3.6328 2.51953,6.4843 -3e-5,2.8777 -0.83987,5.0521 -2.51953,6.5235 -1.66669,1.4714 -4.13414,2.207 -7.40235,2.207 l -4.96094,0 0,11.7188 -3.94531,0 0,-29.1602"
           id="path4319"
           inkscape:connector-curvature="0" />
        <path
           d="m 395.0892,1056.0941 c 1.22722,0.2624 2.18361,0.8083 2.86918,1.6377 0.69401,0.8295 1.04102,1.8536 1.04103,3.0723 -1e-5,1.8705 -0.64325,3.3178 -1.92971,4.3419 -1.28649,1.0241 -3.11464,1.5361 -5.48446,1.5361 -0.79559,0 -1.61656,-0.08 -2.46292,-0.2412 -0.83791,-0.1523 -1.70543,-0.3851 -2.60258,-0.6982 l 0,-2.4757 c 0.71095,0.4148 1.4896,0.7279 2.33597,0.9395 0.84636,0.2116 1.73082,0.3174 2.65336,0.3174 1.60809,0 2.83109,-0.3174 3.669,-0.9522 0.84635,-0.6347 1.26953,-1.5573 1.26955,-2.7676 -2e-5,-1.1172 -0.39358,-1.9889 -1.18068,-2.6152 -0.77867,-0.6348 -1.86625,-0.9522 -3.26275,-0.9522 l -2.20901,0 0,-2.1075 2.31058,0 c 1.26108,0 2.22593,-0.2496 2.89457,-0.749 0.66862,-0.5078 1.00293,-1.2357 1.00294,-2.1836 -10e-6,-0.9733 -0.34702,-1.7181 -1.04103,-2.2344 -0.68556,-0.5248 -1.67158,-0.7871 -2.95805,-0.7871 -0.70249,0 -1.45575,0.076 -2.25979,0.2285 -0.80406,0.1523 -1.68851,0.3893 -2.65336,0.7109 l 0,-2.2852 c 0.97332,-0.2708 1.88316,-0.4739 2.72953,-0.6094 0.85482,-0.1354 1.65887,-0.2031 2.41214,-0.2031 1.94664,0 3.48702,0.4444 4.62116,1.333 1.13412,0.8803 1.70118,2.0737 1.7012,3.5802 -2e-5,1.0495 -0.30048,1.9382 -0.90138,2.666 -0.60093,0.7194 -1.45576,1.2188 -2.56449,1.4981"
           style="font-size:65.00091553%;baseline-shift:sub"
           id="path4321"
           inkscape:connector-curvature="0" />
        <path
           d="m 410.0064,1059.1664 c -1.8874,0 -3.19504,0.2158 -3.92291,0.6475 -0.72788,0.4316 -1.09181,1.168 -1.09181,2.209 0,0.8294 0.27083,1.4896 0.81251,1.9805 0.55014,0.4824 1.29494,0.7236 2.23441,0.7236 1.29493,0 2.33173,-0.457 3.11039,-1.3711 0.78711,-0.9225 1.18067,-2.1455 1.18069,-3.669 l 0,-0.5205 -2.32328,0 m 4.65925,-0.9649 0,8.1125 -2.33597,0 0,-2.1583 c -0.53323,0.8633 -1.19762,1.5023 -1.9932,1.9171 -0.79559,0.4062 -1.76891,0.6093 -2.91996,0.6093 -1.45575,0 -2.61527,-0.4062 -3.47856,-1.2187 -0.85484,-0.821 -1.28225,-1.917 -1.28225,-3.2882 0,-1.5996 0.53321,-2.8057 1.59963,-3.6182 1.07488,-0.8125 2.67451,-1.2187 4.7989,-1.2187 l 3.27544,0 0,-0.2286 c -2e-5,-1.0748 -0.35549,-1.9043 -1.06643,-2.4883 -0.70249,-0.5924 -1.69274,-0.8887 -2.97074,-0.8887 -0.81252,0 -1.60387,0.097 -2.37406,0.292 -0.77019,0.1947 -1.51076,0.4867 -2.22171,0.876 l 0,-2.1582 c 0.85483,-0.3301 1.68427,-0.5755 2.48832,-0.7364 0.80404,-0.1692 1.58693,-0.2538 2.34866,-0.2539 2.05666,1e-4 3.59282,0.5333 4.60847,1.5997 1.01562,1.0664 1.52344,2.683 1.52346,4.8496"
           style="font-size:65.00091553%;baseline-shift:sub"
           id="path4323"
           inkscape:connector-curvature="0" />
      </g>
      <path
         style="fill:none;stroke:#000000;stroke-width:1.38964784;stroke-miterlimit:4;stroke-opacity:1;display:inline"
         d="m -447.5574,1161.7101 78.61036,0 0,78.6103 -78.61036,0 z"
         id="rect3173-5-4"
         inkscape:connector-curvature="0" />
      <g
         style="font-size:40px;font-style:normal;font-weight:normal;line-height:125%;letter-spacing:0px;word-spacing:0px;fill:#000000;fill-opacity:1;stroke:none;display:inline;font-family:Sans"
         id="text3955-6-5">
        <path
           d="m -420.30692,1184.2573 0,10.9571 4.96094,0 c 1.83593,0 3.25519,-0.4753 4.25781,-1.4258 1.00259,-0.9505 1.50389,-2.3047 1.50391,-4.0625 -2e-5,-1.7448 -0.50132,-3.0925 -1.50391,-4.043 -1.00262,-0.9505 -2.42188,-1.4257 -4.25781,-1.4258 l -4.96094,0 m -3.94531,-3.2422 8.90625,0 c 3.26822,10e-5 5.73566,0.7423 7.40235,2.2266 1.67966,1.4714 2.5195,3.6328 2.51953,6.4844 -3e-5,2.8776 -0.83987,5.0521 -2.51953,6.5234 -1.66669,1.4714 -4.13413,2.2071 -7.40235,2.207 l -4.96094,0 0,11.7188 -3.94531,0 0,-29.1602"
           id="path4305"
           inkscape:connector-curvature="0" />
        <path
           d="m -394.21107,1201.4553 -6.4747,10.1183 6.4747,0 0,-10.1183 m -0.67286,-2.2344 3.22465,0 0,12.3527 2.70414,0 0,2.1329 -2.70414,0 0,4.4688 -2.55179,0 0,-4.4688 -8.55676,0 0,-2.4756 7.8839,-12.01"
           style="font-size:65.00091553%;baseline-shift:sub"
           id="path4307"
           inkscape:connector-curvature="0" />
      </g>
      <path
         style="fill:none;stroke:#000000;stroke-width:1.47690737;stroke-linecap:butt;stroke-linejoin:miter;stroke-miterlimit:4;stroke-opacity:1;stroke-dasharray:none;display:inline"
         d="m 433.48621,1051.5267 43.60833,0 0,0 c 4.59042,-1.2284 8.94386,-2.8238 9.69074,-10.0038 l 0,-50.01921"
         id="path4043-6"
         inkscape:connector-curvature="0"
         sodipodi:nodetypes="ccccc" />
      <path
         style="fill:none;stroke:#000000;stroke-width:1.38229668;stroke-linecap:butt;stroke-linejoin:miter;stroke-miterlimit:4;stroke-opacity:1;stroke-dasharray:none"
         d="m -242.94339,1040.9563 -42.40552,0 c -12.07333,1.1176 -16.99554,8.4266 -16.96221,20.0262 l 0,70.0915"
         id="path4189"
         inkscape:connector-curvature="0"
         sodipodi:nodetypes="cccc" />
      <g
         style="font-size:40px;font-style:normal;font-weight:normal;line-height:125%;letter-spacing:0px;word-spacing:0px;fill:#000000;fill-opacity:1;stroke:none;font-family:Sans"
         id="text4191">
        <path
           d="m -315.49442,1137.4897 c -1.43229,10e-5 -2.57162,0.5339 -3.41796,1.6016 -0.83985,1.0677 -1.25977,2.5228 -1.25977,4.3652 0,1.836 0.41992,3.2878 1.25977,4.3555 0.84634,1.0677 1.98567,1.6016 3.41796,1.6016 1.43229,0 2.5651,-0.5339 3.39844,-1.6016 0.83983,-1.0677 1.25976,-2.5195 1.25977,-4.3555 -1e-5,-1.8424 -0.41994,-3.2975 -1.25977,-4.3652 -0.83334,-1.0677 -1.96615,-1.6015 -3.39844,-1.6016 m 0,-1.6015 c 2.04427,0 3.67838,0.6868 4.90235,2.0605 1.22394,1.3672 1.83592,3.2032 1.83594,5.5078 -2e-5,2.2982 -0.612,4.1342 -1.83594,5.5079 -1.22397,1.3671 -2.85808,2.0507 -4.90235,2.0507 -2.05078,0 -3.69141,-0.6836 -4.92187,-2.0507 -1.22396,-1.3672 -1.83594,-3.2032 -1.83594,-5.5079 0,-2.3046 0.61198,-4.1406 1.83594,-5.5078 1.23046,-1.3737 2.87109,-2.0605 4.92187,-2.0605"
           style="font-size:20px;font-variant:normal;font-stretch:normal;text-align:start;line-height:125%;writing-mode:lr-tb;text-anchor:start;font-family:Sans;-inkscape-font-specification:Sans"
           id="path4310"
           inkscape:connector-curvature="0" />
        <path
           d="m -307.03738,1139.7944 1.90429,0 3.41797,9.1797 3.41797,-9.1797 1.9043,0 -4.10157,10.9375 -2.4414,0 -4.10156,-10.9375"
           style="font-size:20px;font-variant:normal;font-stretch:normal;text-align:start;line-height:125%;writing-mode:lr-tb;text-anchor:start;font-family:Sans;-inkscape-font-specification:Sans"
           id="path4312"
           inkscape:connector-curvature="0" />
        <path
           d="m -284.55692,1144.814 0,0.8789 -8.26171,0 c 0.0781,1.237 0.44921,2.181 1.11328,2.832 0.67057,0.6445 1.60155,0.9668 2.79297,0.9668 0.69009,0 1.35741,-0.085 2.00195,-0.2539 0.65103,-0.1693 1.29556,-0.4232 1.93359,-0.7617 l 0,1.6992 c -0.64454,0.2734 -1.30535,0.4818 -1.98242,0.625 -0.67709,0.1432 -1.36394,0.2148 -2.06055,0.2148 -1.74479,0 -3.12825,-0.5078 -4.15039,-1.5234 -1.01562,-1.0156 -1.52344,-2.3893 -1.52343,-4.1211 -1e-5,-1.7904 0.48177,-3.2096 1.44531,-4.2578 0.97005,-1.0547 2.27538,-1.582 3.91601,-1.582 1.47135,0 2.63346,0.4752 3.48633,1.4257 0.85937,0.9441 1.28905,2.2299 1.28906,3.8575 m -1.79687,-0.5274 c -0.013,-0.983 -0.28972,-1.7675 -0.83008,-2.3535 -0.53386,-0.5859 -1.2435,-0.8789 -2.1289,-0.8789 -1.00261,0 -1.80665,0.2832 -2.41211,0.8496 -0.59897,0.5664 -0.94402,1.3639 -1.03516,2.3926 l 6.40625,-0.01"
           style="font-size:20px;font-variant:normal;font-stretch:normal;text-align:start;line-height:125%;writing-mode:lr-tb;text-anchor:start;font-family:Sans;-inkscape-font-specification:Sans"
           id="path4314"
           inkscape:connector-curvature="0" />
        <path
           d="m -272.5159,1144.1304 0,6.6015 -1.79687,0 0,-6.5429 c -10e-6,-1.0352 -0.20184,-1.8099 -0.60547,-2.3243 -0.40366,-0.5143 -1.00913,-0.7714 -1.81641,-0.7714 -0.97006,0 -1.73503,0.3092 -2.29492,0.9277 -0.5599,0.6185 -0.83985,1.4616 -0.83985,2.5293 l 0,6.1816 -1.80664,0 0,-10.9375 1.80664,0 0,1.6993 c 0.42969,-0.6576 0.93424,-1.1491 1.51368,-1.4747 0.58593,-0.3255 1.25976,-0.4882 2.02148,-0.4882 1.2565,0 2.20702,0.3906 2.85156,1.1718 0.64452,0.7748 0.96679,1.9174 0.9668,3.4278"
           style="font-size:20px;font-variant:normal;font-stretch:normal;text-align:start;line-height:125%;writing-mode:lr-tb;text-anchor:start;font-family:Sans;-inkscape-font-specification:Sans"
           id="path4316"
           inkscape:connector-curvature="0" />
      </g>
      <path
         style="fill:none;stroke:#000000;stroke-width:1.5;stroke-linecap:butt;stroke-linejoin:miter;stroke-miterlimit:4;stroke-opacity:1;stroke-dasharray:none"
         d="m 90,664.09448 50,0 c 4.92816,-0.78161 9.73154,-1.76287 10,-10 l 0,-25"
         id="path4195"
         inkscape:connector-curvature="0"
         transform="translate(-452.25224,536.92069)"
         sodipodi:nodetypes="cccc" />
      <path
         inkscape:connector-curvature="0"
         id="path4427-3-1"
         d="m -307.28795,1176.0152 5,-10 0,0 5,10 0,0"
         style="fill:none;stroke:#000000;stroke-width:1.5;stroke-linecap:butt;stroke-linejoin:miter;stroke-miterlimit:4;stroke-opacity:1;stroke-dasharray:none;display:inline"
         inkscape:transform-center-x="5.75"
         inkscape:transform-center-y="-5.75" />
      <g
         style="font-size:40px;font-style:normal;font-weight:normal;line-height:125%;letter-spacing:0px;word-spacing:0px;fill:#000000;fill-opacity:1;stroke:none;font-family:Sans"
         id="text4215">
        <path
           d="m 476.62863,677.55817 0,2.08007 c -0.66407,-0.61847 -1.37371,-1.08071 -2.1289,-1.38671 -0.74871,-0.30598 -1.54624,-0.45898 -2.39258,-0.45899 -1.66668,10e-6 -2.94272,0.51108 -3.82813,1.5332 -0.88542,1.01564 -1.32813,2.48699 -1.32812,4.41407 -10e-6,1.92058 0.4427,3.39193 1.32812,4.41406 0.88541,1.01563 2.16145,1.52344 3.82813,1.52344 0.84634,0 1.64387,-0.153 2.39258,-0.45899 0.75519,-0.30598 1.46483,-0.76822 2.1289,-1.38672 l 0,2.06055 c -0.69011,0.46875 -1.42254,0.82031 -2.19726,1.05469 -0.76824,0.23437 -1.58204,0.35156 -2.44141,0.35156 -2.20704,0 -3.94532,-0.67383 -5.21484,-2.02148 -1.26954,-1.35417 -1.9043,-3.19987 -1.9043,-5.53711 0,-2.34374 0.63476,-4.18944 1.9043,-5.53711 1.26952,-1.35415 3.0078,-2.03124 5.21484,-2.03125 0.87239,10e-6 1.6927,0.1172 2.46094,0.35156 0.77473,0.22788 1.50064,0.57293 2.17773,1.03516"
           style="font-size:20px;font-variant:normal;font-stretch:normal;text-align:start;line-height:125%;writing-mode:lr-tb;text-anchor:start;font-family:Sans;-inkscape-font-specification:Sans"
           id="path4269"
           inkscape:connector-curvature="0" />
        <path
           d="m 483.85519,681.33746 c -0.96354,1e-5 -1.72526,0.37762 -2.28515,1.13282 -0.5599,0.7487 -0.83985,1.77735 -0.83985,3.08593 0,1.3086 0.27669,2.3405 0.83008,3.09571 0.55989,0.7487 1.32487,1.12304 2.29492,1.12304 0.95703,0 1.71549,-0.3776 2.27539,-1.13281 0.55989,-0.7552 0.83984,-1.78385 0.83985,-3.08594 -1e-5,-1.29556 -0.27996,-2.32095 -0.83985,-3.07617 -0.5599,-0.76171 -1.31836,-1.14257 -2.27539,-1.14258 m 0,-1.52343 c 1.5625,10e-6 2.78971,0.50782 3.68164,1.52343 0.89192,1.01564 1.33788,2.42189 1.3379,4.21875 -2e-5,1.79037 -0.44598,3.19662 -1.3379,4.21875 -0.89193,1.01563 -2.11914,1.52344 -3.68164,1.52344 -1.56901,0 -2.79948,-0.50781 -3.6914,-1.52344 -0.88542,-1.02213 -1.32813,-2.42838 -1.32813,-4.21875 0,-1.79686 0.44271,-3.20311 1.32813,-4.21875 0.89192,-1.01561 2.12239,-1.52342 3.6914,-1.52343"
           style="font-size:20px;font-variant:normal;font-stretch:normal;text-align:start;line-height:125%;writing-mode:lr-tb;text-anchor:start;font-family:Sans;-inkscape-font-specification:Sans"
           id="path4271"
           inkscape:connector-curvature="0" />
        <path
           d="m 491.84348,675.81989 1.79687,0 0,15.19531 -1.79687,0 0,-15.19531"
           style="font-size:20px;font-variant:normal;font-stretch:normal;text-align:start;line-height:125%;writing-mode:lr-tb;text-anchor:start;font-family:Sans;-inkscape-font-specification:Sans"
           id="path4273"
           inkscape:connector-curvature="0" />
        <path
           d="m 504.58762,681.73785 0,-5.91796 1.79687,0 0,15.19531 -1.79687,0 0,-1.64063 c -0.37762,0.65105 -0.85613,1.13607 -1.43555,1.45508 -0.57292,0.3125 -1.26303,0.46875 -2.07031,0.46875 -1.32162,0 -2.3991,-0.52734 -3.23243,-1.58203 -0.82682,-1.05469 -1.24023,-2.4414 -1.24023,-4.16016 0,-1.71874 0.41341,-3.10546 1.24023,-4.16015 0.83333,-1.05468 1.91081,-1.58202 3.23243,-1.58203 0.80728,10e-6 1.49739,0.15951 2.07031,0.47851 0.57942,0.31251 1.05793,0.79428 1.43555,1.44531 m -6.12305,3.81836 c 0,1.32162 0.27018,2.36003 0.81055,3.11524 0.54687,0.7487 1.29556,1.12305 2.24609,1.12304 0.95051,10e-6 1.69921,-0.37434 2.24609,-1.12304 0.54687,-0.75521 0.82031,-1.79362 0.82032,-3.11524 -1e-5,-1.3216 -0.27345,-2.35676 -0.82032,-3.10547 -0.54688,-0.75519 -1.29558,-1.1328 -2.24609,-1.13281 -0.95053,10e-6 -1.69922,0.37762 -2.24609,1.13281 -0.54037,0.74871 -0.81055,1.78387 -0.81055,3.10547"
           style="font-size:20px;font-variant:normal;font-stretch:normal;text-align:start;line-height:125%;writing-mode:lr-tb;text-anchor:start;font-family:Sans;-inkscape-font-specification:Sans"
           id="path4275"
           inkscape:connector-curvature="0" />
        <path
           d="m 463.68918,701.43512 12.33398,0 0,1.66016 -5.17578,0 0,12.91992 -1.98242,0 0,-12.91992 -5.17578,0 0,-1.66016"
           style="font-size:20px;font-variant:normal;font-stretch:normal;text-align:start;line-height:125%;writing-mode:lr-tb;text-anchor:start;font-family:Sans;-inkscape-font-specification:Sans"
           id="path4277"
           inkscape:connector-curvature="0" />
        <path
           d="m 481.2673,706.75739 c -0.20183,-0.11718 -0.42318,-0.20182 -0.66406,-0.25391 -0.23438,-0.0586 -0.4948,-0.0879 -0.78125,-0.0879 -1.01563,10e-6 -1.79688,0.33204 -2.34375,0.99609 -0.54037,0.65756 -0.81055,1.60483 -0.81055,2.8418 l 0,5.76172 -1.80664,0 0,-10.9375 1.80664,0 0,1.69922 c 0.3776,-0.66406 0.86914,-1.15559 1.47461,-1.47461 0.60547,-0.32551 1.34114,-0.48827 2.20703,-0.48828 0.1237,10e-6 0.26041,0.01 0.41016,0.0293 0.14973,0.013 0.31575,0.0358 0.49805,0.0684 l 0.01,1.84571"
           style="font-size:20px;font-variant:normal;font-stretch:normal;text-align:start;line-height:125%;writing-mode:lr-tb;text-anchor:start;font-family:Sans;-inkscape-font-specification:Sans"
           id="path4279"
           inkscape:connector-curvature="0" />
        <path
           d="m 488.1423,710.51715 c -1.45182,10e-6 -2.45768,0.16602 -3.01757,0.49805 -0.5599,0.33203 -0.83985,0.89844 -0.83985,1.69922 0,0.63802 0.20833,1.14583 0.625,1.52343 0.42317,0.3711 0.99609,0.55665 1.71875,0.55664 0.99609,10e-6 1.79361,-0.35156 2.39258,-1.05468 0.60546,-0.70964 0.90819,-1.65039 0.9082,-2.82227 l 0,-0.40039 -1.78711,0 m 3.58399,-0.74219 0,6.24024 -1.79688,0 0,-1.66016 c -0.41016,0.66406 -0.92123,1.1556 -1.5332,1.47461 -0.61199,0.3125 -1.36068,0.46875 -2.24609,0.46875 -1.1198,0 -2.01173,-0.3125 -2.67579,-0.9375 -0.65755,-0.63151 -0.98632,-1.47461 -0.98632,-2.5293 0,-1.23046 0.41015,-2.15819 1.23047,-2.7832 0.82681,-0.62499 2.05728,-0.93749 3.6914,-0.9375 l 2.51953,0 0,-0.17578 c -1e-5,-0.82682 -0.27344,-1.46484 -0.82031,-1.91406 -0.54037,-0.45572 -1.30209,-0.68359 -2.28516,-0.6836 -0.625,1e-5 -1.23372,0.0749 -1.82617,0.22461 -0.59245,0.14975 -1.16211,0.37436 -1.70898,0.67383 l 0,-1.66016 c 0.65755,-0.25389 1.29557,-0.44269 1.91406,-0.5664 0.61849,-0.1302 1.2207,-0.1953 1.80664,-0.19531 1.58202,10e-6 2.76366,0.41016 3.54492,1.23046 0.78124,0.82033 1.17187,2.06381 1.17188,3.73047"
           style="font-size:20px;font-variant:normal;font-stretch:normal;text-align:start;line-height:125%;writing-mode:lr-tb;text-anchor:start;font-family:Sans;-inkscape-font-specification:Sans"
           id="path4281"
           inkscape:connector-curvature="0" />
        <path
           d="m 497.17551,714.37457 0,5.80078 -1.80664,0 0,-15.09765 1.80664,0 0,1.66015 c 0.3776,-0.65103 0.85286,-1.1328 1.42578,-1.44531 0.57942,-0.319 1.26952,-0.4785 2.07031,-0.47851 1.32812,10e-6 2.40559,0.52735 3.23242,1.58203 0.83332,1.05469 1.24999,2.44141 1.25,4.16015 -10e-6,1.71876 -0.41668,3.10547 -1.25,4.16016 -0.82683,1.05469 -1.9043,1.58203 -3.23242,1.58203 -0.80079,0 -1.49089,-0.15625 -2.07031,-0.46875 -0.57292,-0.31901 -1.04818,-0.80403 -1.42578,-1.45508 m 6.11328,-3.81836 c -1e-5,-1.3216 -0.27345,-2.35676 -0.82031,-3.10547 -0.54038,-0.75519 -1.28582,-1.1328 -2.23633,-1.13281 -0.95053,10e-6 -1.69923,0.37762 -2.2461,1.13281 -0.54037,0.74871 -0.81055,1.78387 -0.81054,3.10547 -10e-6,1.32162 0.27017,2.36003 0.81054,3.11524 0.54687,0.7487 1.29557,1.12305 2.2461,1.12304 0.95051,10e-6 1.69595,-0.37434 2.23633,-1.12304 0.54686,-0.75521 0.8203,-1.79362 0.82031,-3.11524"
           style="font-size:20px;font-variant:normal;font-stretch:normal;text-align:start;line-height:125%;writing-mode:lr-tb;text-anchor:start;font-family:Sans;-inkscape-font-specification:Sans"
           id="path4283"
           inkscape:connector-curvature="0" />
      </g>
      <path
         style="fill:none;stroke:#000000;stroke-width:1.38964784;stroke-miterlimit:4;stroke-opacity:1;display:inline"
         d="m 368.4426,651.71002 78.61036,0 0,78.61035 -78.61036,0 z"
         id="rect3173-0"
         inkscape:connector-curvature="0" />
      <g
         style="font-size:40px;font-style:normal;font-weight:normal;line-height:125%;letter-spacing:0px;word-spacing:0px;fill:#000000;fill-opacity:1;stroke:none;display:inline;font-family:Sans"
         id="text3955-63">
        <path
           d="m 393.69308,674.25739 0,10.95703 4.96094,0 c 1.83593,10e-6 3.25519,-0.47525 4.25781,-1.42578 1.00259,-0.95051 1.50389,-2.30467 1.50391,-4.0625 -2e-5,-1.74477 -0.50132,-3.09243 -1.50391,-4.04297 -1.00262,-0.9505 -2.42188,-1.42576 -4.25781,-1.42578 l -4.96094,0 m -3.94531,-3.24219 8.90625,0 c 3.26822,3e-5 5.73566,0.74221 7.40235,2.22656 1.67966,1.47138 2.5195,3.63284 2.51953,6.48438 -3e-5,2.87762 -0.83987,5.05209 -2.51953,6.52343 -1.66669,1.47137 -4.13413,2.20705 -7.40235,2.20703 l -4.96094,0 0,11.71875 -3.94531,0 0,-29.16015"
           id="path4286"
           inkscape:connector-curvature="0" />
        <path
           d="m 413.18727,706.01712 4.18951,0 0,-14.46016 -4.55768,0.91407 0,-2.33597 4.53229,-0.91407 2.56449,0 0,16.79613 4.18951,0 0,2.15823 -10.91812,0 0,-2.15823"
           style="font-size:65.00091553%;baseline-shift:sub"
           id="path4288"
           inkscape:connector-curvature="0" />
      </g>
      <path
         style="fill:none;stroke:#000000;stroke-width:1.5;stroke-linecap:butt;stroke-linejoin:miter;stroke-miterlimit:4;stroke-opacity:1;stroke-dasharray:none"
         d="m 940,124.09448 0,-39.999998 c 0.83171,-14.623423 8.72243,-19.620924 20,-20 l 60,0"
         id="path4248"
         inkscape:connector-curvature="0"
         transform="translate(-452.25224,536.92069)"
         sodipodi:nodetypes="cccc" />
      <path
         inkscape:connector-curvature="0"
         id="path4429-1-1"
         d="m 557.97504,595.8496 10,5 0,0 -10,5 0,0"
         style="fill:none;stroke:#000000;stroke-width:1.5;stroke-linecap:butt;stroke-linejoin:miter;stroke-miterlimit:4;stroke-opacity:1;stroke-dasharray:none;display:inline" />
    </g>
  </g>
</svg>
