<?xml version="1.0" encoding="UTF-8" standalone="no"?>
<!-- Created with Inkscape (http://www.inkscape.org/) -->

<svg
   xmlns:dc="http://purl.org/dc/elements/1.1/"
   xmlns:cc="http://creativecommons.org/ns#"
   xmlns:rdf="http://www.w3.org/1999/02/22-rdf-syntax-ns#"
   xmlns:svg="http://www.w3.org/2000/svg"
   xmlns="http://www.w3.org/2000/svg"
   version="1.1"
   width="64"
   height="64"
   id="svg6808">
  <defs
     id="defs6810" />
  <metadata
     id="metadata6813">
    <rdf:RDF>
      <cc:Work
         rdf:about="">
        <dc:format>image/svg+xml</dc:format>
        <dc:type
           rdf:resource="http://purl.org/dc/dcmitype/StillImage" />
        <dc:title></dc:title>
      </cc:Work>
    </rdf:RDF>
  </metadata>
  <g
     id="layer1"
     style="display:inline">
    <path
       d="m 5.1304875,29.571279 0,-28.2890736 22.1561415,-0.00781 c 27.575389,-0.00973 35.561283,0.00576 35.607786,0.069067 0.02592,0.035282 0.06338,49.7204066 0.04219,55.9511146 l -0.002,0.565781 -28.902094,0 -28.9020938,0 0,-28.289074 z m 4.6038732,27.766814 c 0,-0.334909 -0.085253,-0.348173 -2.2379937,-0.348173 -2.1527374,0 -2.2379946,0.01327 -2.2379946,0.348173 0,0.33491 0.085253,0.348174 2.2379946,0.348174 2.1527365,0 2.2379937,-0.01327 2.2379937,-0.348174 z m 5.8827273,0 c 0,-0.337856 -0.08525,-0.348173 -2.877421,-0.348173 -2.7921642,0 -2.8774205,0.01032 -2.8774205,0.348173 0,0.337857 0.085253,0.348174 2.8774205,0.348174 2.792164,0 2.877421,-0.01032 2.877421,-0.348174 z m 5.882727,0 c 0,-0.337856 -0.08525,-0.348173 -2.877421,-0.348173 -2.792164,0 -2.877421,0.01032 -2.877421,0.348173 0,0.337857 0.08525,0.348174 2.877421,0.348174 2.792163,0 2.877421,-0.01032 2.877421,-0.348174 z m 6.010612,0 c 0,-0.338081 -0.08525,-0.348173 -2.941363,-0.348173 -2.856106,0 -2.941364,0.0101 -2.941364,0.348173 0,0.338082 0.08525,0.348174 2.941364,0.348174 2.856106,0 2.941363,-0.0101 2.941363,-0.348174 z m 5.882728,0 c 0,-0.337856 -0.08525,-0.348173 -2.877421,-0.348173 -2.792164,0 -2.877421,0.01032 -2.877421,0.348173 0,0.337857 0.08525,0.348174 2.877421,0.348174 2.792163,0 2.877421,-0.01032 2.877421,-0.348174 z m 6.010612,0 c 0,-0.338081 -0.08525,-0.348173 -2.941363,-0.348173 -2.856106,0 -2.941364,0.0101 -2.941364,0.348173 0,0.338082 0.08525,0.348174 2.941364,0.348174 2.856106,0 2.941363,-0.0101 2.941363,-0.348174 z m 5.882728,0 c 0,-0.337856 -0.08525,-0.348173 -2.877421,-0.348173 -2.792164,0 -2.877421,0.01032 -2.877421,0.348173 0,0.337857 0.08525,0.348174 2.877421,0.348174 2.792163,0 2.877421,-0.01032 2.877421,-0.348174 z m 6.010612,0 c 0,-0.338081 -0.08525,-0.348173 -2.941364,-0.348173 -2.856106,0 -2.941364,0.0101 -2.941364,0.348173 0,0.338082 0.08525,0.348174 2.941364,0.348174 2.856107,0 2.941364,-0.0101 2.941364,-0.348174 z m 5.882727,0 c 0,-0.337856 -0.08525,-0.348173 -2.877421,-0.348173 -2.792164,0 -2.877421,0.01032 -2.877421,0.348173 0,0.337857 0.08525,0.348174 2.877421,0.348174 2.792163,0 2.877421,-0.01032 2.877421,-0.348174 z m 5.626957,0 c 0,-0.337376 -0.08525,-0.348173 -2.749536,-0.348173 -2.664278,0 -2.749536,0.01079 -2.749536,0.348173 0,0.337377 0.08525,0.348174 2.749536,0.348174 2.664278,0 2.749536,-0.01079 2.749536,-0.348174 z M 8.3515714,56.082123 c 0.2629951,-0.186605 0.5420987,-0.2855 0.6202287,-0.219769 0.2360368,0.198581 0.8903089,0.202964 0.8924046,0.006 0.00138,-0.127894 0.030625,-0.12839 0.095914,-0.0016 0.1388593,0.269582 0.6694393,0.270255 0.6694393,8.01e-4 0,-0.239676 0.532142,-0.792592 0.762812,-0.792592 0.07282,0 0.136928,0.176262 0.142482,0.391694 0.0061,0.237427 0.03804,0.295612 0.08105,0.147732 0.05192,-0.178498 0.116624,-0.131784 0.241143,0.174087 l 0.170185,0.41805 0.0045,-0.544467 c 0.0048,-0.577113 0.271518,-1.017224 0.542061,-0.894462 0.09282,0.04212 0.256456,-0.212034 0.381703,-0.592845 0.120576,-0.366612 0.305658,-0.666569 0.411293,-0.666569 0.269387,0 0.843525,0.37449 0.843525,0.550204 0,0.08038 0.143872,0.146142 0.319713,0.146142 0.198934,0 0.319714,-0.09865 0.319714,-0.261129 0,-0.143622 0.05755,-0.26113 0.127885,-0.26113 0.07034,0 0.127886,-0.152055 0.127886,-0.337899 0,-0.185844 0.06138,-0.389538 0.136394,-0.45265 0.211308,-0.177775 0.494452,0.463464 0.498966,1.130018 0.0023,0.33622 0.05086,0.527799 0.110393,0.435216 0.208273,-0.323951 0.405215,-1.614836 0.405215,-2.656039 0,-1.423348 0.334436,-1.625249 0.560288,-0.338251 0.104566,0.595855 0.295472,0.612949 0.486064,0.04352 0.08012,-0.239369 0.245374,-0.435216 0.367234,-0.435216 0.121858,0 0.254685,-0.117509 0.295172,-0.26113 0.04049,-0.143622 0.169782,-0.26113 0.287325,-0.26113 0.117544,0 0.288491,-0.137094 0.379882,-0.304652 0.13823,-0.253432 0.209216,-0.268891 0.42222,-0.09195 0.23651,0.196469 0.259068,0.16325 0.29553,-0.435216 0.02464,-0.404451 0.09955,-0.631566 0.199334,-0.604398 0.09883,0.02691 0.167036,-0.172471 0.178659,-0.52226 0.01899,-0.571519 0.11486,0.189882 0.345228,2.741864 0.0605,0.670234 0.118442,1.081513 0.128757,0.913955 0.01032,-0.167558 0.09755,-0.304651 0.193851,-0.304651 0.19091,0 0.332752,-0.856982 0.335037,-2.024259 7.67e-4,-0.395234 0.08773,-0.999843 0.193236,-1.343579 0.105505,-0.343734 0.202231,-1.156277 0.214946,-1.805647 0.0212,-1.082833 0.03201,-1.029195 0.130423,0.647233 0.05902,1.00535 0.152709,2.807146 0.208205,4.003992 0.07707,1.662193 0.106673,1.895157 0.125348,0.986491 0.01774,-0.86356 0.06827,-1.169594 0.184305,-1.116626 0.204391,0.09329 0.467816,-2.505512 0.595598,-5.875853 l 0.09241,-2.437213 0.02367,2.285333 c 0.01854,1.789998 0.06525,2.332302 0.215498,2.502049 0.153482,0.173397 0.19666,0.760558 0.215995,2.937266 0.02087,2.349185 0.03396,2.506678 0.09591,1.153769 0.05728,-1.250856 0.09109,-1.448308 0.167661,-0.979237 0.05275,0.323148 0.09591,1.335027 0.09591,2.248619 0,3.01466 0.171577,1.495013 0.286058,-2.533592 0.06187,-2.177113 0.156325,-5.36849 0.209908,-7.091947 l 0.09743,-3.133559 0.0325,2.698342 c 0.03545,2.94321 0.135152,4.19499 0.333253,4.183928 0.07777,-0.0043 0.154787,1.135874 0.19653,2.909456 0.06094,2.589138 0.07386,2.721143 0.115075,1.17573 0.02554,-0.957476 0.07101,-1.505849 0.101052,-1.218606 0.172488,1.649211 0.27337,0.106708 0.371909,-5.686501 l 0.110554,-6.499562 0.07863,3.481733 c 0.04325,1.914952 0.08642,3.863434 0.09595,4.329958 0.01406,0.688358 0.04967,0.811684 0.188946,0.654336 0.09439,-0.10664 0.209489,-0.142345 0.25577,-0.07935 0.04628,0.063 0.09637,1.33533 0.111308,2.827398 0.02285,2.28288 0.03309,2.409341 0.06459,0.797897 0.02058,-1.053224 0.0912,-2.071631 0.156907,-2.263126 0.06571,-0.191496 0.157438,-1.269104 0.20384,-2.394687 0.05562,-1.349109 0.139032,-2.090667 0.24478,-2.176083 0.08823,-0.07126 0.193084,-0.247077 0.233014,-0.390699 0.03993,-0.143621 0.07918,0.326413 0.08723,1.04452 0.0087,0.777737 0.08853,1.48162 0.197393,1.740866 0.140992,0.335745 0.1838,1.221038 0.187295,3.873427 0.0028,2.171971 0.05163,3.438211 0.132418,3.438211 0.07815,0 0.127885,-0.812405 0.127885,-2.08904 0,-1.148971 0.04855,-2.089039 0.107873,-2.089039 0.05933,0 0.143083,-1.501239 0.186114,-3.336086 0.05082,-2.166747 0.12846,-3.378335 0.221514,-3.456624 0.08215,-0.06911 0.180069,-0.929706 0.229514,-2.017077 0.04865,-1.070037 0.141972,-1.89654 0.214125,-1.89654 0.08081,0 0.156956,1.986619 0.206855,5.396685 0.166809,11.39943 0.139877,10.763076 0.257873,6.093032 0.05806,-2.297944 0.170086,-4.726452 0.248946,-5.396685 0.157821,-1.341327 0.340707,-3.678187 0.47685,-6.093032 0.04859,-0.861728 0.145879,-1.566779 0.216216,-1.566779 0.08094,0 0.158978,2.097953 0.212585,5.715086 0.04658,3.143295 0.11852,5.761123 0.159857,5.817393 0.04133,0.05627 0.07515,-0.765948 0.07515,-1.827151 0,-1.078637 0.05423,-1.955048 0.122973,-1.987489 0.06764,-0.03191 0.158378,-1.037265 0.201652,-2.234111 0.04327,-1.196845 0.131793,-2.33276 0.196707,-2.524256 0.06491,-0.191495 0.161204,-1.30922 0.213975,-2.483831 0.158577,-3.529702 0.343061,-2.581624 0.435928,2.24027 0.05349,2.777173 0.135136,4.44169 0.223798,4.562384 0.100865,0.137304 0.147372,-0.145645 0.167636,-1.019881 0.01543,-0.665446 0.06036,0.435216 0.09984,2.445916 l 0.0718,3.655819 0.02879,-4.961468 c 0.01583,-2.728808 0.09209,-5.431502 0.169458,-6.005988 0.07737,-0.574486 0.177747,-1.906249 0.223059,-2.959473 0.04671,-1.085813 0.137755,-1.914952 0.210269,-1.914952 0.08114,0 0.152262,2.004487 0.194573,5.483728 0.03668,3.01605 0.07984,4.641584 0.09591,3.612297 0.01726,-1.105039 0.0816,-1.871431 0.157112,-1.871431 0.08156,0 0.138286,-1.78143 0.156598,-4.917947 l 0.02871,-4.917946 0.07046,4.526251 c 0.03875,2.489439 0.08338,4.20513 0.09917,3.81265 0.08113,-2.016314 0.205154,-3.357131 0.302923,-3.274875 0.0602,0.05064 0.122971,2.888072 0.139499,6.3054 l 0.03005,6.213321 0.06586,-8.095027 c 0.04284,-5.264844 0.110574,-8.079927 0.193747,-8.051835 0.07866,0.02657 0.153797,1.701789 0.195203,4.352165 0.03702,2.369935 0.08879,4.269804 0.115034,4.22193 0.02624,-0.04787 0.08546,-2.63306 0.131582,-5.744858 l 0.08386,-5.657815 0.02491,7.104304 c 0.01642,4.683396 0.06848,7.067639 0.152787,6.996711 0.07184,-0.06044 0.127886,-0.891953 0.127886,-1.897319 0,-3.335474 0.184714,-8.299569 0.266243,-7.155185 0.0585,0.821097 0.07901,0.611239 0.09591,-0.981098 0.01496,-1.409414 0.07961,-2.177308 0.212539,-2.524256 0.173348,-0.452459 0.191113,-0.01189 0.191828,4.757208 5.12e-4,3.314931 0.04802,5.295579 0.128673,5.363438 0.08425,0.07088 0.134888,-2.108717 0.148407,-6.387409 l 0.02052,-6.495001 0.102206,7.572768 c 0.05621,4.165022 0.120481,7.807784 0.142818,8.095027 0.02233,0.287243 0.09659,-2.415451 0.165012,-6.005988 0.09857,-5.172867 0.138934,-6.076455 0.194393,-4.352165 l 0.06999,2.176083 0.02592,-2.53296 c 0.01426,-1.393129 0.07904,-2.607383 0.143966,-2.698343 0.06492,-0.09096 0.142626,-0.400399 0.172668,-0.687642 0.03005,-0.287243 0.07026,3.355519 0.08936,8.095027 0.01911,4.739508 0.07508,9.98822 0.124396,11.663803 l 0.08966,3.046516 0.04049,-2.524256 c 0.02226,-1.388341 0.0788,-7.067916 0.125613,-12.621279 0.07577,-8.987796 0.08926,-9.465913 0.122794,-4.352165 0.04266,6.505265 0.222402,7.006509 0.280921,0.783389 0.03285,-3.493138 0.04928,-3.785727 0.112495,-2.001996 l 0.07402,2.08904 0.06011,-1.82791 c 0.04392,-1.335704 0.103152,-1.81619 0.219964,-1.784388 0.110027,0.02996 0.165102,-0.241376 0.176682,-0.870433 0.0092,-0.502675 0.05685,-1.814853 0.105774,-2.91595 0.06875,-1.547305 0.09397,-1.735113 0.11106,-0.826912 0.01217,0.647266 0.07955,1.175085 0.149998,1.175085 0.0811,0 0.136399,1.54438 0.15116,4.2216 l 0.02328,4.2216 0.08841,-3.829905 c 0.04862,-2.106448 0.106072,-5.279176 0.127662,-7.050508 0.05977,-4.903253 0.122152,-2.649305 0.233698,8.443201 0.09203,9.152407 0.103481,9.525638 0.122324,3.989485 0.01144,-3.359147 0.06395,-6.16563 0.116701,-6.236632 0.05275,-0.071 0.158735,-1.592081 0.235516,-3.38018 0.07763,-1.807921 0.148595,-2.690827 0.159857,-1.988962 0.01134,0.706979 0.07651,1.262128 0.14814,1.262128 0.08397,0 0.135319,4.61843 0.149531,13.44819 l 0.02164,13.448191 0.09351,-16.941597 c 0.05143,-9.31788 0.12801,-16.988571 0.170183,-17.045981 0.04218,-0.05741 0.08472,1.455869 0.09455,3.362841 0.0098,1.906975 0.05632,6.404937 0.103311,9.995474 0.07401,5.655222 0.08872,5.999987 0.110014,2.578052 0.01498,-2.408417 0.07449,-3.992191 0.15246,-4.057789 0.07371,-0.06201 0.127886,-0.988298 0.127886,-2.186357 0,-1.269786 0.04976,-2.078765 0.127885,-2.078765 0.07507,0 0.136591,-0.70097 0.148965,-1.697344 l 0.02109,-1.697344 0.09179,1.740866 c 0.05048,0.957476 0.109668,4.756916 0.131527,8.4432 l 0.03974,6.702335 0.08519,-7.311638 c 0.04685,-4.021401 0.101895,-9.270112 0.122323,-11.663803 0.02043,-2.393691 0.05999,-4.152605 0.08792,-3.908697 0.02792,0.243907 0.09614,7.881956 0.151588,16.973445 0.08548,14.015765 0.104018,15.108315 0.12189,7.183095 0.01356,-6.012102 0.0667,-9.385268 0.148965,-9.454473 0.07603,-0.06396 0.127886,-1.162385 0.127886,-2.708617 0,-1.617959 0.04833,-2.601025 0.127885,-2.601025 0.07498,0 0.137157,-0.702176 0.150296,-1.697344 l 0.02241,-1.697344 0.08813,2.089039 c 0.04848,1.148972 0.10624,4.870073 0.128367,8.269114 0.03787,5.816221 0.04882,5.452368 0.186053,-6.180075 0.128226,-10.86893 0.150803,-11.68805 0.187124,-6.789378 0.05373,7.245015 0.204884,16.46894 0.236251,14.415942 0.01344,-0.880015 0.08199,-1.648443 0.152332,-1.707619 0.07757,-0.06526 0.127885,-1.336472 0.127885,-3.230877 0,-1.887898 0.04875,-3.123284 0.123255,-3.123284 0.06779,0 0.142067,-0.763723 0.165063,-1.697345 0.03809,-1.546394 0.04419,-1.492206 0.06857,0.609303 0.02176,1.875453 0.06121,2.306648 0.211045,2.306648 0.101354,0 0.209347,-0.05875 0.239982,-0.130565 0.03064,-0.07181 0.09724,-6.064742 0.148011,-13.317626 l 0.09231,-13.1870599 -2.89,0 -2.889998,0 -0.0215,0.6528247 -0.0215,0.6528248 -0.05017,-0.6528248 -0.05017,-0.6528247 -2.933645,0 -2.933641,0 -0.0215,0.6528247 -0.0215,0.6528248 -0.05017,-0.6528248 -0.05017,-0.6528247 -2.869702,0 -2.869701,0 -0.0215,0.6528247 -0.0215,0.6528248 -0.05017,-0.6528248 -0.05017,-0.6528247 -2.933644,0 -2.933643,0 -0.0215,0.6528247 -0.0215,0.6528248 -0.05017,-0.6528248 -0.05017,-0.6528247 -2.869701,0 -2.869702,0 -0.0215,0.6528247 -0.0215,0.6528248 -0.05017,-0.6528248 -0.05017,-0.6528247 -2.869701,0 -2.8697003,0 -0.021498,0.6528247 -0.021498,0.6528248 -0.050168,-0.6528248 -0.050167,-0.6528247 -2.230274,0 -2.2302741,0 0,5.3096416 0,5.3096413 0.4795702,0.02926 0.4795701,0.02927 -0.4795701,0.06829 -0.4795702,0.06829 0,5.473219 0,5.47322 0.4795702,0.02926 0.4795701,0.02927 -0.4795701,0.06829 -0.4795702,0.06829 0,5.47322 0,5.473219 0.4795702,0.02926 0.4795701,0.02927 -0.4795701,0.06829 -0.4795702,0.06829 0,5.47322 0,5.473219 0.4795702,0.02926 0.4795701,0.02927 -0.4795701,0.06829 -0.4795702,0.06829 0,5.396114 0,5.396114 1.3075126,-0.03307 C 7.5786957,56.428857 7.981025,56.344968 8.3514627,56.08213 z m 53.3015406,-16.889895 0.08646,-8.750516 0.04487,7.050508 0.04487,7.050508 0.08918,-4.439209 c 0.04905,-2.441565 0.09616,-12.136013 0.104694,-21.543218 l 0.01551,-17.1040089 -0.607071,-8.7e-6 -0.607069,-8.6e-6 0.04342,6.6588216 c 0.02395,3.6742016 0.09561,6.7329486 0.159857,6.8242036 0.0701,0.09957 0.126519,-2.463682 0.141771,-6.4412046 0.01413,-3.6837936 0.0626,0.016871 0.109562,8.3648616 0.04633,8.234296 0.09248,18.646852 0.102554,23.139012 0.01008,4.492159 0.05581,8.116536 0.101622,8.054169 0.04582,-0.06237 0.122208,-4.051126 0.16976,-8.86391 z M 56.636321,5.4167624 c 0.120472,0.032799 0.159857,-0.4497237 0.159857,-1.9584743 l 0,-2.001996 -0.607456,-1.421e-4 -0.607455,-1.42e-4 0.07859,9.357297 c 0.04322,5.146513 0.08638,13.933599 0.09591,19.526857 0.0095,5.593257 0.05931,10.112409 0.110615,10.042561 0.05131,-0.06985 0.126996,-4.176117 0.168189,-9.125039 l 0.0749,-8.998042 0.02416,10.184066 c 0.01328,5.601237 0.06709,11.202474 0.119552,12.447193 0.05549,1.316528 0.122139,-6.474696 0.159338,-18.627267 0.05076,-16.5824386 0.09691,-20.8814184 0.223796,-20.8468716 z m 3.618474,31.7598666 0.0749,-8.998043 0.04745,7.746854 c 0.04584,7.481843 0.05042,7.603928 0.134194,3.568776 0.0477,-2.297943 0.09453,-11.796544 0.104065,-21.108002 l 0.01733,-16.9299219 -0.383656,0 -0.383656,0 7.9e-5,6.9199427 c 1.28e-4,11.9432582 0.166649,37.9995552 0.242179,37.8967392 0.03971,-0.05407 0.105917,-4.147423 0.147111,-9.096345 z m -1.427399,-3.12262 c 0.0097,-5.238046 0.05964,-8.051505 0.142833,-8.051505 0.08404,0 0.127885,-4.207094 0.127885,-12.273106 l 0,-12.2731059 -0.319713,0 -0.319713,0 7.7e-5,5.3531632 c 1.27e-4,11.5901417 0.192837,37.4954947 0.270931,36.4276227 0.04551,-0.62236 0.08948,-4.75474 0.0977,-9.183069 z M 55.124075,3.1101148 c 0.06689,-0.1914952 0.142405,-0.6419443 0.167811,-1.000998 l 0.0462,-0.6528247 -0.613748,0 -0.613748,0 0,7.3013635 c 0,4.6797904 0.04591,7.3399944 0.127886,7.4089544 0.08217,0.06913 0.138561,3.542503 0.157747,9.715603 l 0.02986,9.608011 0.06605,-7.311638 0.06606,-7.311637 0.0947,10.358153 c 0.05208,5.696984 0.138406,10.789018 0.191828,11.31563 0.05342,0.526612 0.110772,-8.051506 0.127442,-19.062484 0.01848,-12.206962 0.07778,-20.1558382 0.151919,-20.3681332 z M 57.41889,31.96497 c 0.01087,-5.120385 0.06148,-7.877419 0.1446,-7.877419 0.08395,0 0.127885,-3.887934 0.127885,-11.31563 0,-9.942279 -0.02329,-11.3156289 -0.191827,-11.3156289 -0.132589,0 -0.198467,0.2016002 -0.213326,0.6528247 l -0.0215,0.6528248 -0.05017,-0.6528248 c -0.02759,-0.3590536 -0.113389,-0.6528247 -0.190665,-0.6528247 -0.100254,0 -0.116652,1.0425286 -0.05724,3.6393629 0.0458,2.0016496 0.126599,11.226063 0.179567,20.498697 0.05297,9.272635 0.132226,16.271794 0.176131,15.553687 0.04391,-0.718108 0.08735,-4.850488 0.09654,-9.183069 z M 53.599043,20.901766 c 0,-14.5671803 0.03598,-19.0766376 0.153463,-19.23657 0.119359,-0.1624808 0.01524,-0.2089039 -0.468549,-0.2089039 l -0.62201,0 0.08477,10.0535009 c 0.04662,5.529426 0.09431,13.343739 0.105972,17.36514 0.01366,4.708545 0.05388,6.691854 0.112986,5.570771 0.05048,-0.957476 0.109613,-4.717747 0.131405,-8.356157 l 0.03963,-6.615291 0.08577,7.746854 c 0.04717,4.26077 0.09365,8.863184 0.103285,10.227588 0.01074,1.521865 0.06695,2.480734 0.145406,2.480734 0.08448,0 0.127885,-6.458613 0.12788,-19.027666 z m -1.406739,-1.340467 0,-18.1050069 -0.365842,0 c -0.345837,0 -0.370253,0.049979 -0.446488,0.9139547 -0.04435,0.502675 -0.08115,7.8273692 -0.08176,16.2770972 -9.82e-4,13.365557 0.02321,15.363144 0.185918,15.363144 0.147595,0 0.195927,-0.33953 0.229229,-1.610301 0.02321,-0.885666 0.05415,-0.06311 0.06875,1.827909 0.02257,2.924072 0.05523,3.438211 0.21837,3.438211 0.169284,0 0.191827,-2.127725 0.191822,-18.105008 z m -1.534624,-1.04452 0,-17.0604869 -0.383657,0 -0.383655,0 0,15.3196209 c 0,13.332946 0.02428,15.319622 0.187197,15.319622 0.148681,0 0.195799,-0.349233 0.229005,-1.697344 0.02299,-0.93354 0.05385,-0.202376 0.06857,1.624807 0.02356,2.924863 0.06604,3.554269 0.239908,3.554269 0.02344,0 0.04263,-7.677219 0.04263,-17.060488 z M 45.823468,29.84165 c 0.100858,-5.752933 0.193408,-7.009163 0.215504,-2.925192 0.01251,2.31218 0.0449,2.741864 0.206663,2.741864 0.166432,0 0.191827,-0.72218 0.191827,-5.455108 0,-3.000311 0.03817,-9.345767 0.08483,-14.101016 l 0.08483,-8.6459059 -0.596376,0 -0.596374,0 0,16.8138639 c 0,13.37357 0.03271,16.799081 0.159857,16.741613 0.120267,-0.05436 0.181991,-1.334776 0.249237,-5.170119 z m 3.427473,-12.456434 0,-15.9289239 -0.383656,0 -0.383656,0 0,14.4491879 c 0,12.568798 0.02436,14.449189 0.187197,14.449189 0.148681,0 0.195799,-0.349233 0.229005,-1.697345 0.02579,-1.047216 0.05206,-0.524892 0.06857,1.363678 0.02356,2.694017 0.06721,3.293139 0.239908,3.293139 0.02344,0 0.04263,-7.168016 0.04263,-15.928925 z m 13.523553,8.06149 c -0.02216,-1.178399 -0.04035,-0.262409 -0.04044,2.035534 -8.4e-5,2.297943 0.01805,3.262089 0.04028,2.142545 0.02224,-1.119544 0.02231,-2.99968 1.28e-4,-4.178079 z M 47.87545,16.645348 C 47.90136,4.954044 47.94133,1.9005426 48.068001,1.9350302 c 0.08793,0.023937 0.159857,-0.073987 0.159857,-0.2176082 0,-0.1934296 -0.1492,-0.2611299 -0.575484,-0.2611299 l -0.575485,0 0,13.7006159 c 0,8.728636 0.04444,13.640123 0.122455,13.533923 0.06735,-0.09168 0.141838,-0.871154 0.165531,-1.732162 0.02445,-0.888256 0.05445,-0.266391 0.06938,1.437526 0.02217,2.532255 0.05626,3.002994 0.217403,3.002994 0.167791,0 0.195094,-1.800009 0.223796,-14.753841 z m 14.899179,-1.642859 c -0.02121,-1.561929 -0.03861,-0.333024 -0.03867,2.730901 -5.1e-5,3.063924 0.01731,4.341866 0.03857,2.839869 0.02126,-1.501995 0.02131,-4.008842 9.9e-5,-5.57077 z M 62.744752,1.4878985 c -0.03621,-0.049299 -0.09552,-0.049243 -0.131786,1.25e-4 -0.03627,0.049368 -0.02188,2.4713482 0.03197,5.3821778 l 0.09791,5.2924167 0.03388,-5.2925417 c 0.01863,-2.9108984 0.0042,-5.3328783 -0.03197,-5.3821778 z m -3.007211,4.9298619 0,-4.9614683 -0.287741,0.013744 c -0.158259,0.00756 -0.215807,0.053257 -0.127886,0.1015505 0.122396,0.06723 0.159857,1.1994669 0.159857,4.8316671 0,4.1804643 0.03407,4.9759753 0.213143,4.9759753 0.02344,0 0.04263,-2.2326606 0.04263,-4.9614686 z M 58.330802,6.1566305 c 0,-4.0620209 -0.02605,-4.7003384 -0.191828,-4.7003384 -0.163762,0 -0.191827,0.4824323 -0.191827,3.2973715 0,2.0104623 0.04991,3.3393626 0.127885,3.4049629 0.07034,0.059175 0.127885,0.6905104 0.127885,1.402967 0,0.7124565 0.02878,1.2953755 0.06394,1.2953755 0.03516,0 0.06394,-2.1151523 0.06394,-4.7003385 z m 4.092332,-2.6983424 c 0,-1.2186063 -0.05004,-2.001996 -0.127885,-2.001996 -0.07738,0 -0.127886,0.7447038 -0.127886,1.8859382 0,1.6541384 0.04668,2.1180538 0.213143,2.1180538 0.02344,0 0.04263,-0.9008982 0.04263,-2.001996 z"
       id="path7387"
       style="fill:#ff1a1a;fill-opacity:1;stroke:none" />
  </g>
  <g
     id="layer3"
     style="display:inline">
    <path
       d="m 5.0102513,1.1280005 0,56.4475175 L 62.872,57.7041 62.745387,1.3851646 z"
       id="path7389"
       style="fill:none;stroke:#000000;stroke-width:0.99244291px;stroke-linecap:butt;stroke-linejoin:miter;stroke-opacity:1;display:inline" />
    <text
       x="21.341768"
       y="62.842918"
       id="text7391"
       xml:space="preserve"
       style="font-size:40px;font-style:normal;font-weight:normal;line-height:125%;letter-spacing:0px;word-spacing:0px;fill:#000000;fill-opacity:1;stroke:none;display:inline;font-family:Sans"><tspan
         x="21.341768"
         y="62.842918"
         id="tspan7393"
         style="font-size:5px;font-style:normal;font-variant:normal;font-weight:normal;font-stretch:normal;text-align:start;line-height:125%;writing-mode:lr-tb;text-anchor:start;font-family:Sans;-inkscape-font-specification:Sans">Frequency</tspan></text>
    <text
       x="-40.581966"
       y="3.9536841"
       transform="matrix(0,-1,1,0,0,0)"
       id="text7395"
       xml:space="preserve"
       style="font-size:40px;font-style:normal;font-weight:normal;line-height:125%;letter-spacing:0px;word-spacing:0px;fill:#000000;fill-opacity:1;stroke:none;display:inline;font-family:Sans"><tspan
         x="-40.581966"
         y="3.9536841"
         id="tspan7397"
         style="font-size:5px;font-style:normal;font-variant:normal;font-weight:normal;font-stretch:normal;text-align:start;line-height:125%;writing-mode:lr-tb;text-anchor:start;font-family:Sans;-inkscape-font-specification:Sans">Intensity</tspan></text>
  </g>
</svg>
